%TF.GenerationSoftware,KiCad,Pcbnew,9.0.5*%
%TF.CreationDate,2025-10-22T01:15:42+03:00*%
%TF.ProjectId,CAN_interface,43414e5f-696e-4746-9572-666163652e6b,rev?*%
%TF.SameCoordinates,Original*%
%TF.FileFunction,Paste,Top*%
%TF.FilePolarity,Positive*%
%FSLAX46Y46*%
G04 Gerber Fmt 4.6, Leading zero omitted, Abs format (unit mm)*
G04 Created by KiCad (PCBNEW 9.0.5) date 2025-10-22 01:15:42*
%MOMM*%
%LPD*%
G01*
G04 APERTURE LIST*
G04 Aperture macros list*
%AMRoundRect*
0 Rectangle with rounded corners*
0 $1 Rounding radius*
0 $2 $3 $4 $5 $6 $7 $8 $9 X,Y pos of 4 corners*
0 Add a 4 corners polygon primitive as box body*
4,1,4,$2,$3,$4,$5,$6,$7,$8,$9,$2,$3,0*
0 Add four circle primitives for the rounded corners*
1,1,$1+$1,$2,$3*
1,1,$1+$1,$4,$5*
1,1,$1+$1,$6,$7*
1,1,$1+$1,$8,$9*
0 Add four rect primitives between the rounded corners*
20,1,$1+$1,$2,$3,$4,$5,0*
20,1,$1+$1,$4,$5,$6,$7,0*
20,1,$1+$1,$6,$7,$8,$9,0*
20,1,$1+$1,$8,$9,$2,$3,0*%
G04 Aperture macros list end*
%ADD10RoundRect,0.082140X0.841660X0.191660X-0.841660X0.191660X-0.841660X-0.191660X0.841660X-0.191660X0*%
%ADD11RoundRect,0.237500X-0.250000X-0.237500X0.250000X-0.237500X0.250000X0.237500X-0.250000X0.237500X0*%
%ADD12RoundRect,0.082140X-0.191660X0.841660X-0.191660X-0.841660X0.191660X-0.841660X0.191660X0.841660X0*%
%ADD13RoundRect,0.237500X0.250000X0.237500X-0.250000X0.237500X-0.250000X-0.237500X0.250000X-0.237500X0*%
%ADD14RoundRect,0.144780X-0.668020X0.337820X-0.668020X-0.337820X0.668020X-0.337820X0.668020X0.337820X0*%
%ADD15RoundRect,0.129540X0.784860X-0.302260X0.784860X0.302260X-0.784860X0.302260X-0.784860X-0.302260X0*%
%ADD16RoundRect,0.150000X-0.825000X-0.150000X0.825000X-0.150000X0.825000X0.150000X-0.825000X0.150000X0*%
%ADD17RoundRect,0.237500X0.237500X-0.250000X0.237500X0.250000X-0.237500X0.250000X-0.237500X-0.250000X0*%
%ADD18RoundRect,0.237500X-0.300000X-0.237500X0.300000X-0.237500X0.300000X0.237500X-0.300000X0.237500X0*%
%ADD19RoundRect,0.237500X0.237500X-0.300000X0.237500X0.300000X-0.237500X0.300000X-0.237500X-0.300000X0*%
%ADD20RoundRect,0.160020X0.373380X0.881380X-0.373380X0.881380X-0.373380X-0.881380X0.373380X-0.881380X0*%
%ADD21RoundRect,0.307140X1.416660X0.716660X-1.416660X0.716660X-1.416660X-0.716660X1.416660X-0.716660X0*%
%ADD22RoundRect,0.237500X0.287500X0.237500X-0.287500X0.237500X-0.287500X-0.237500X0.287500X-0.237500X0*%
%ADD23RoundRect,0.150000X0.875000X0.150000X-0.875000X0.150000X-0.875000X-0.150000X0.875000X-0.150000X0*%
%ADD24RoundRect,0.237500X-0.237500X0.250000X-0.237500X-0.250000X0.237500X-0.250000X0.237500X0.250000X0*%
%ADD25RoundRect,0.358140X-0.899160X0.835660X-0.899160X-0.835660X0.899160X-0.835660X0.899160X0.835660X0*%
%ADD26RoundRect,0.091440X-0.213360X-0.467360X0.213360X-0.467360X0.213360X0.467360X-0.213360X0.467360X0*%
%ADD27RoundRect,0.237500X-0.287500X-0.237500X0.287500X-0.237500X0.287500X0.237500X-0.287500X0.237500X0*%
%ADD28R,1.270000X0.609600*%
%ADD29RoundRect,0.237500X-0.237500X0.300000X-0.237500X-0.300000X0.237500X-0.300000X0.237500X0.300000X0*%
%ADD30RoundRect,0.119640X-0.304160X0.279160X-0.304160X-0.279160X0.304160X-0.279160X0.304160X0.279160X0*%
%ADD31R,1.600000X0.700000*%
%ADD32R,1.800000X1.200000*%
%ADD33R,1.500000X1.600000*%
%ADD34R,2.200000X1.200000*%
%ADD35RoundRect,0.144780X0.668020X-0.337820X0.668020X0.337820X-0.668020X0.337820X-0.668020X-0.337820X0*%
%ADD36RoundRect,0.053340X1.140460X0.124460X-1.140460X0.124460X-1.140460X-0.124460X1.140460X-0.124460X0*%
%ADD37RoundRect,0.243840X0.568960X0.822960X-0.568960X0.822960X-0.568960X-0.822960X0.568960X-0.822960X0*%
%ADD38R,0.508000X1.422400*%
%ADD39R,1.422400X0.508000*%
%ADD40RoundRect,0.114300X0.825500X-0.000010X0.825500X0.000010X-0.825500X0.000010X-0.825500X-0.000010X0*%
G04 APERTURE END LIST*
D10*
%TO.C,X3*%
X173000000Y-97907500D03*
X173000000Y-96907500D03*
X173000000Y-95907500D03*
%TD*%
D11*
%TO.C,R21*%
X178587500Y-88500000D03*
X180412500Y-88500000D03*
%TD*%
D12*
%TO.C,X1*%
X139500000Y-102407500D03*
X138500000Y-102407500D03*
X137500000Y-102407500D03*
%TD*%
D11*
%TO.C,R27*%
X189087500Y-111000000D03*
X190912500Y-111000000D03*
%TD*%
D13*
%TO.C,R8*%
X128912500Y-98500000D03*
X127087500Y-98500000D03*
%TD*%
D14*
%TO.C,C4*%
X133000000Y-102169250D03*
X133000000Y-104963250D03*
%TD*%
D11*
%TO.C,R9*%
X189087500Y-74500000D03*
X190912500Y-74500000D03*
%TD*%
D13*
%TO.C,R13*%
X116912500Y-107000000D03*
X115087500Y-107000000D03*
%TD*%
D15*
%TO.C,PB1*%
X94500000Y-80907500D03*
X94500000Y-76907000D03*
%TD*%
D16*
%TO.C,U5*%
X180025000Y-95502500D03*
X180025000Y-96772500D03*
X180025000Y-98042500D03*
X180025000Y-99312500D03*
X184975000Y-99312500D03*
X184975000Y-98042500D03*
X184975000Y-96772500D03*
X184975000Y-95502500D03*
%TD*%
D17*
%TO.C,R5*%
X108500000Y-80912500D03*
X108500000Y-79087500D03*
%TD*%
D18*
%TO.C,C10*%
X115137500Y-119500000D03*
X116862500Y-119500000D03*
%TD*%
D19*
%TO.C,C3*%
X124000000Y-104862500D03*
X124000000Y-103137500D03*
%TD*%
D11*
%TO.C,R16*%
X115087500Y-109000000D03*
X116912500Y-109000000D03*
%TD*%
D20*
%TO.C,IC1*%
X116311400Y-74808700D03*
X114000000Y-74808700D03*
X111688600Y-74808700D03*
D21*
X114000000Y-81006500D03*
%TD*%
D22*
%TO.C,D4*%
X103375000Y-100000000D03*
X101625000Y-100000000D03*
%TD*%
D23*
%TO.C,U2*%
X166832500Y-84662500D03*
X166832500Y-83392500D03*
X166832500Y-82122500D03*
X166832500Y-80852500D03*
X166832500Y-79582500D03*
X166832500Y-78312500D03*
X166832500Y-77042500D03*
X166832500Y-75772500D03*
X166832500Y-74502500D03*
X157532500Y-74502500D03*
X157532500Y-75772500D03*
X157532500Y-77042500D03*
X157532500Y-78312500D03*
X157532500Y-79582500D03*
X157532500Y-80852500D03*
X157532500Y-82122500D03*
X157532500Y-83392500D03*
X157532500Y-84662500D03*
%TD*%
D24*
%TO.C,R4*%
X100000000Y-73495000D03*
X100000000Y-75320000D03*
%TD*%
D25*
%TO.C,D3*%
X107350000Y-84907500D03*
D26*
X105000000Y-84907500D03*
%TD*%
D13*
%TO.C,R14*%
X116912500Y-111000000D03*
X115087500Y-111000000D03*
%TD*%
D27*
%TO.C,D1*%
X122625000Y-96500000D03*
X124375000Y-96500000D03*
%TD*%
%TO.C,D12*%
X173625000Y-125500000D03*
X175375000Y-125500000D03*
%TD*%
D13*
%TO.C,R7*%
X107912500Y-100000000D03*
X106087500Y-100000000D03*
%TD*%
D11*
%TO.C,R26*%
X178587500Y-125500000D03*
X180412500Y-125500000D03*
%TD*%
D19*
%TO.C,C2*%
X128000000Y-104862500D03*
X128000000Y-103137500D03*
%TD*%
D28*
%TO.C,L3*%
X190901799Y-115514499D03*
X190901799Y-116614499D03*
X193848199Y-116614499D03*
X193848199Y-115514499D03*
%TD*%
D23*
%TO.C,U4*%
X166650000Y-102987500D03*
X166650000Y-101717500D03*
X166650000Y-100447500D03*
X166650000Y-99177500D03*
X166650000Y-97907500D03*
X166650000Y-96637500D03*
X166650000Y-95367500D03*
X166650000Y-94097500D03*
X166650000Y-92827500D03*
X157350000Y-92827500D03*
X157350000Y-94097500D03*
X157350000Y-95367500D03*
X157350000Y-96637500D03*
X157350000Y-97907500D03*
X157350000Y-99177500D03*
X157350000Y-100447500D03*
X157350000Y-101717500D03*
X157350000Y-102987500D03*
%TD*%
D16*
%TO.C,U7*%
X180025000Y-114002500D03*
X180025000Y-115272500D03*
X180025000Y-116542500D03*
X180025000Y-117812500D03*
X184975000Y-117812500D03*
X184975000Y-116542500D03*
X184975000Y-115272500D03*
X184975000Y-114002500D03*
%TD*%
D17*
%TO.C,R10*%
X152500000Y-85912500D03*
X152500000Y-84087500D03*
%TD*%
D29*
%TO.C,C5*%
X117500000Y-83137500D03*
X117500000Y-84862500D03*
%TD*%
D27*
%TO.C,D7*%
X173625000Y-84500000D03*
X175375000Y-84500000D03*
%TD*%
D23*
%TO.C,U6*%
X166800000Y-122527500D03*
X166800000Y-121257500D03*
X166800000Y-119987500D03*
X166800000Y-118717500D03*
X166800000Y-117447500D03*
X166800000Y-116177500D03*
X166800000Y-114907500D03*
X166800000Y-113637500D03*
X166800000Y-112367500D03*
X157500000Y-112367500D03*
X157500000Y-113637500D03*
X157500000Y-114907500D03*
X157500000Y-116177500D03*
X157500000Y-117447500D03*
X157500000Y-118717500D03*
X157500000Y-119987500D03*
X157500000Y-121257500D03*
X157500000Y-122527500D03*
%TD*%
D13*
%TO.C,R2*%
X123912500Y-92000000D03*
X122087500Y-92000000D03*
%TD*%
D11*
%TO.C,R20*%
X178587500Y-84500000D03*
X180412500Y-84500000D03*
%TD*%
D17*
%TO.C,R11*%
X152500000Y-103912500D03*
X152500000Y-102087500D03*
%TD*%
D10*
%TO.C,X4*%
X173000000Y-116907500D03*
X173000000Y-115907500D03*
X173000000Y-114907500D03*
%TD*%
D17*
%TO.C,R28*%
X186500000Y-86412500D03*
X186500000Y-84587500D03*
%TD*%
D27*
%TO.C,D2*%
X103625000Y-76907500D03*
X105375000Y-76907500D03*
%TD*%
D18*
%TO.C,C6*%
X95137500Y-84000000D03*
X96862500Y-84000000D03*
%TD*%
D11*
%TO.C,R24*%
X178587500Y-121500000D03*
X180412500Y-121500000D03*
%TD*%
%TO.C,R17*%
X115087500Y-113000000D03*
X116912500Y-113000000D03*
%TD*%
D13*
%TO.C,R6*%
X107412500Y-96500000D03*
X105587500Y-96500000D03*
%TD*%
D17*
%TO.C,R30*%
X186500000Y-104912500D03*
X186500000Y-103087500D03*
%TD*%
D11*
%TO.C,R12*%
X189087500Y-92000000D03*
X190912500Y-92000000D03*
%TD*%
D30*
%TO.C,F1*%
X101000000Y-87607500D03*
X101000000Y-89207500D03*
%TD*%
D16*
%TO.C,U3*%
X180207500Y-77677500D03*
X180207500Y-78947500D03*
X180207500Y-80217500D03*
X180207500Y-81487500D03*
X185157500Y-81487500D03*
X185157500Y-80217500D03*
X185157500Y-78947500D03*
X185157500Y-77677500D03*
%TD*%
D22*
%TO.C,D5*%
X103375000Y-96500000D03*
X101625000Y-96500000D03*
%TD*%
D27*
%TO.C,D9*%
X173625000Y-102500000D03*
X175375000Y-102500000D03*
%TD*%
%TO.C,D10*%
X173625000Y-106000000D03*
X175375000Y-106000000D03*
%TD*%
D17*
%TO.C,R25*%
X152000000Y-123412500D03*
X152000000Y-121587500D03*
%TD*%
D27*
%TO.C,D11*%
X173625000Y-121500000D03*
X175375000Y-121500000D03*
%TD*%
D29*
%TO.C,C1*%
X137000000Y-84637500D03*
X137000000Y-86362500D03*
%TD*%
D11*
%TO.C,R22*%
X178587500Y-102500000D03*
X180412500Y-102500000D03*
%TD*%
D31*
%TO.C,J3*%
X111000000Y-114107500D03*
X111000000Y-113007500D03*
X111000000Y-111907500D03*
X111000000Y-110807500D03*
X111000000Y-109707500D03*
X111000000Y-108607500D03*
X111000000Y-107507500D03*
X111000000Y-106407500D03*
X111000000Y-105307500D03*
D32*
X109700000Y-104107500D03*
D33*
X109950000Y-118707500D03*
D34*
X100400000Y-104107500D03*
X100400000Y-119607500D03*
%TD*%
D18*
%TO.C,C8*%
X120137500Y-87500000D03*
X121862500Y-87500000D03*
%TD*%
D13*
%TO.C,R1*%
X123912500Y-89500000D03*
X122087500Y-89500000D03*
%TD*%
D28*
%TO.C,L1*%
X190901799Y-78934499D03*
X190901799Y-80034499D03*
X193848199Y-80034499D03*
X193848199Y-78934499D03*
%TD*%
D13*
%TO.C,R15*%
X116912500Y-115000000D03*
X115087500Y-115000000D03*
%TD*%
D35*
%TO.C,C7*%
X101000000Y-84145750D03*
X101000000Y-81351750D03*
%TD*%
D11*
%TO.C,R18*%
X115087500Y-117000000D03*
X116912500Y-117000000D03*
%TD*%
D27*
%TO.C,D6*%
X122625000Y-98500000D03*
X124375000Y-98500000D03*
%TD*%
D36*
%TO.C,USB1*%
X97183000Y-95495000D03*
X97183000Y-94695000D03*
X97183000Y-93895000D03*
X97183000Y-93095000D03*
X97183000Y-92295000D03*
D37*
X91235000Y-98212500D03*
X96823000Y-98212500D03*
X96823000Y-89576500D03*
X91235000Y-89576500D03*
%TD*%
D17*
%TO.C,R29*%
X186500000Y-123912500D03*
X186500000Y-122087500D03*
%TD*%
D11*
%TO.C,R23*%
X178587500Y-106000000D03*
X180412500Y-106000000D03*
%TD*%
D38*
%TO.C,U1*%
X133200001Y-97674700D03*
X133999999Y-97674700D03*
X134800000Y-97674700D03*
X135600001Y-97674700D03*
X136399999Y-97674700D03*
X137200000Y-97674700D03*
X137999999Y-97674700D03*
X138799999Y-97674700D03*
D39*
X140267200Y-96207499D03*
X140267200Y-95407501D03*
X140267200Y-94607500D03*
X140267200Y-93807499D03*
X140267200Y-93007501D03*
X140267200Y-92207500D03*
X140267200Y-91407501D03*
X140267200Y-90607501D03*
D38*
X138799999Y-89140300D03*
X138000001Y-89140300D03*
X137200000Y-89140300D03*
X136399999Y-89140300D03*
X135600001Y-89140300D03*
X134800000Y-89140300D03*
X134000001Y-89140300D03*
X133200001Y-89140300D03*
D39*
X131732800Y-90607501D03*
X131732800Y-91407499D03*
X131732800Y-92207500D03*
X131732800Y-93007501D03*
X131732800Y-93807499D03*
X131732800Y-94607500D03*
X131732800Y-95407499D03*
X131732800Y-96207499D03*
%TD*%
D40*
%TO.C,IC2*%
X117238500Y-98273500D03*
X117238500Y-97623300D03*
X117238500Y-96973500D03*
X117238500Y-96323500D03*
X117238500Y-95673300D03*
X117238500Y-95023600D03*
X117238500Y-94373800D03*
X117238500Y-93723600D03*
X117238500Y-93073600D03*
X117238500Y-92423400D03*
X117238500Y-91773100D03*
X117238500Y-91123400D03*
X117238500Y-90473700D03*
X117238500Y-89823400D03*
X110126500Y-89823400D03*
X110126500Y-90473700D03*
X110126500Y-91123400D03*
X110126500Y-91773100D03*
X110126500Y-92423400D03*
X110126500Y-93073600D03*
X110126500Y-93723600D03*
X110126500Y-94373800D03*
X110126500Y-95023600D03*
X110126500Y-95673300D03*
X110126500Y-96323500D03*
X110126500Y-96973500D03*
X110126500Y-97623800D03*
X110126500Y-98273500D03*
%TD*%
D28*
%TO.C,L2*%
X190901799Y-96934499D03*
X190901799Y-98034499D03*
X193848199Y-98034499D03*
X193848199Y-96934499D03*
%TD*%
D10*
%TO.C,X2*%
X173182500Y-80582500D03*
X173182500Y-79582500D03*
X173182500Y-78582500D03*
%TD*%
D27*
%TO.C,D8*%
X173625000Y-88500000D03*
X175375000Y-88500000D03*
%TD*%
D13*
%TO.C,R3*%
X128912500Y-96500000D03*
X127087500Y-96500000D03*
%TD*%
D18*
%TO.C,C9*%
X105637500Y-92500000D03*
X107362500Y-92500000D03*
%TD*%
D24*
%TO.C,R19*%
X113000000Y-102495000D03*
X113000000Y-104320000D03*
%TD*%
M02*
