M48
; DRILL file {KiCad 9.0.5} date 2025-10-22T01:15:51+0300
; FORMAT={-:-/ absolute / inch / decimal}
; #@! TF.CreationDate,2025-10-22T01:15:51+03:00
; #@! TF.GenerationSoftware,Kicad,Pcbnew,9.0.5
; #@! TF.FileFunction,Plated,1,2,PTH
FMAT,2
INCH
; #@! TA.AperFunction,Plated,PTH,ViaDrill
T1C0.0118
; #@! TA.AperFunction,Plated,PTH,ComponentDrill
T2C0.0360
; #@! TA.AperFunction,Plated,PTH,ComponentDrill
T3C0.0394
; #@! TA.AperFunction,Plated,PTH,ComponentDrill
T4C0.0420
; #@! TA.AperFunction,Plated,PTH,ComponentDrill
T5C0.0510
%
G90
G05
T1
X3.5433Y-2.8937
X3.5433Y-2.9331
X3.5827Y-2.8937
X3.5827Y-2.9331
X3.6378Y-3.3067
X3.6378Y-3.3461
X3.6772Y-3.3067
X3.6772Y-3.3461
X3.8386Y-3.0709
X3.8386Y-3.1102
X3.878Y-3.0709
X3.878Y-3.1102
X3.8937Y-3.543
X3.8937Y-3.5823
X3.8937Y-4.3697
X3.8937Y-4.4091
X3.9331Y-3.5626
X3.9331Y-4.3697
X3.9331Y-4.4091
X3.937Y-3.7598
X3.937Y-3.8189
X3.937Y-3.878
X4.1102Y-3.6808
X4.2126Y-4.268
X4.252Y-3.6024
X4.2677Y-2.9327
X4.2677Y-2.9721
X4.2717Y-2.8704
X4.3071Y-2.8704
X4.3071Y-2.9327
X4.3071Y-2.9721
X4.3071Y-3.9563
X4.3071Y-3.9957
X4.3465Y-2.8704
X4.3465Y-3.9563
X4.3465Y-3.9957
X4.3701Y-3.3428
X4.3858Y-2.8704
X4.4055Y-3.3428
X4.4252Y-3.602
X4.4291Y-3.7008
X4.4291Y-3.8189
X4.4331Y-4.146
X4.4449Y-3.3428
X4.4488Y-4.2286
X4.4843Y-3.3428
X4.5236Y-3.3428
X4.5472Y-3.8349
X4.563Y-3.4445
X4.563Y-3.917
X4.5669Y-3.3428
X4.5669Y-4.1142
X4.622Y-3.4445
X4.622Y-3.917
X4.626Y-4.1142
X4.6417Y-3.1689
X4.6417Y-3.2083
X4.6614Y-4.9406
X4.6614Y-4.98
X4.6654Y-4.2126
X4.6654Y-4.3701
X4.6654Y-4.5276
X4.6811Y-3.1689
X4.6811Y-3.2083
X4.685Y-3.7365
X4.7008Y-4.9406
X4.7008Y-4.98
X4.7795Y-3.0508
X4.7795Y-3.0902
X4.8189Y-3.0508
X4.8189Y-3.0902
X4.878Y-3.917
X4.9213Y-3.622
X4.937Y-3.917
X5.0197Y-3.622
X5.0748Y-4.9603
X5.0748Y-4.9996
X5.1142Y-3.2477
X5.1142Y-3.2871
X5.1142Y-4.9603
X5.1142Y-4.9996
X5.1181Y-3.5003
X5.1535Y-3.2477
X5.1535Y-3.2871
X5.1575Y-3.9173
X5.2559Y-3.5987
X5.2756Y-3.3822
X5.2756Y-3.9173
X5.311Y-3.5823
X5.3346Y-3.0512
X5.3346Y-3.0906
X5.3543Y-3.1693
X5.374Y-3.0512
X5.374Y-3.0906
X5.4528Y-3.6971
X5.4567Y-3.579
X5.4724Y-3.4019
X5.5079Y-4.2713
X5.5079Y-4.3107
X5.5472Y-3.1493
X5.5472Y-3.1886
X5.5472Y-4.2713
X5.5472Y-4.3107
X5.5709Y-3.5987
X5.5866Y-3.1493
X5.5866Y-3.1886
X5.6654Y-3.9563
X5.6654Y-3.9957
X5.6693Y-3.6381
X5.689Y-3.3034
X5.7047Y-3.9563
X5.7047Y-3.9957
X5.7677Y-3.6971
X5.8268Y-4.6223
X5.8465Y-3.5236
X5.8465Y-3.563
X5.8661Y-3.1263
X5.8661Y-3.4449
X5.8858Y-3.5236
X5.8858Y-3.563
X5.9252Y-4.0157
X5.9252Y-4.7835
X5.9646Y-3.6417
X5.9646Y-3.6811
X6.0039Y-2.9134
X6.0039Y-2.9528
X6.0039Y-3.0832
X6.0039Y-3.6417
X6.0039Y-3.6811
X6.0433Y-2.9134
X6.0433Y-2.9528
X6.0433Y-3.1853
X6.0433Y-3.894
X6.0433Y-4.642
X6.1024Y-3.8546
X6.1024Y-4.6027
X6.1811Y-4.9409
X6.1811Y-4.9803
X6.2205Y-4.9409
X6.2205Y-4.9803
X6.2992Y-3.7956
X6.3386Y-4.5042
X6.378Y-3.1853
X6.3937Y-2.8343
X6.3937Y-2.8737
X6.3976Y-4.7208
X6.4173Y-3.894
X6.4331Y-2.8343
X6.4331Y-2.8737
X6.4724Y-3.4445
X6.4724Y-3.4839
X6.4724Y-4.2122
X6.4724Y-4.2516
X6.5118Y-3.4445
X6.5118Y-3.4839
X6.5118Y-4.2122
X6.5118Y-4.2516
X6.9449Y-4.5863
X6.9488Y-3.8546
X6.9685Y-3.1263
X7.4016Y-4.7244
X7.4213Y-3.248
X7.4213Y-3.9764
X7.5551Y-2.8343
X7.5551Y-2.8737
X7.5551Y-3.4642
X7.5551Y-3.5036
X7.5591Y-4.9606
X7.5591Y-5.0
X7.5748Y-4.2122
X7.5748Y-4.2516
X7.5945Y-2.8343
X7.5945Y-2.8737
X7.5945Y-3.4642
X7.5945Y-3.5036
X7.5984Y-4.9606
X7.5984Y-5.0
X7.6142Y-4.2122
X7.6142Y-4.2516
X7.7362Y-3.1077
X7.7362Y-3.8163
X7.7362Y-4.5478
X8.0118Y-3.4055
X8.0118Y-3.4449
X8.0118Y-4.1339
X8.0118Y-4.1732
X8.0512Y-3.4055
X8.0512Y-3.4449
X8.0512Y-4.1339
X8.0512Y-4.1732
T2
X4.8909Y-2.9134
X4.9909Y-2.9134
X7.5301Y-3.3683
X7.5301Y-4.0967
X7.5301Y-4.8447
X7.6301Y-3.3683
X7.6301Y-4.0967
X7.6301Y-4.8447
T3
X5.0394Y-4.396
X5.0394Y-4.6519
T4
X5.2937Y-2.9097
X5.3937Y-2.9097
X5.4937Y-2.9097
X5.5937Y-2.9097
X5.6937Y-2.9097
X5.7937Y-2.9097
X5.8937Y-2.9097
T5
X5.4499Y-4.7001
X5.6499Y-4.7001
X8.0069Y-3.7395
X8.0069Y-3.9395
X8.0069Y-4.4679
X8.0069Y-4.6679
X8.0079Y-3.028
X8.0079Y-3.228
M30
