%TF.GenerationSoftware,KiCad,Pcbnew,9.0.5*%
%TF.CreationDate,2025-10-22T01:15:42+03:00*%
%TF.ProjectId,CAN_interface,43414e5f-696e-4746-9572-666163652e6b,rev?*%
%TF.SameCoordinates,Original*%
%TF.FileFunction,Copper,L2,Bot*%
%TF.FilePolarity,Positive*%
%FSLAX46Y46*%
G04 Gerber Fmt 4.6, Leading zero omitted, Abs format (unit mm)*
G04 Created by KiCad (PCBNEW 9.0.5) date 2025-10-22 01:15:42*
%MOMM*%
%LPD*%
G01*
G04 APERTURE LIST*
%TA.AperFunction,Conductor*%
%ADD10C,0.200000*%
%TD*%
%TA.AperFunction,ComponentPad*%
%ADD11C,1.422400*%
%TD*%
%TA.AperFunction,ComponentPad*%
%ADD12C,1.905000*%
%TD*%
%TA.AperFunction,ComponentPad*%
%ADD13C,1.803400*%
%TD*%
%TA.AperFunction,ComponentPad*%
%ADD14R,1.574800X1.574800*%
%TD*%
%TA.AperFunction,ComponentPad*%
%ADD15C,1.574800*%
%TD*%
%TA.AperFunction,ViaPad*%
%ADD16C,0.600000*%
%TD*%
%TA.AperFunction,Conductor*%
%ADD17C,0.400000*%
%TD*%
%TA.AperFunction,Conductor*%
%ADD18C,1.000000*%
%TD*%
%TA.AperFunction,Conductor*%
%ADD19C,0.800000*%
%TD*%
G04 APERTURE END LIST*
D10*
%TO.N,MISO*%
X137000000Y-90907500D02*
X138500000Y-90907500D01*
%TO.N,SCK*%
X137500000Y-91907500D02*
X139500000Y-91907500D01*
%TO.N,Net-(J6-Pad1)*%
X193000000Y-120000000D02*
X188000000Y-120000000D01*
X196500000Y-116000000D02*
X193000000Y-120000000D01*
X196500000Y-115500000D02*
X196500000Y-116000000D01*
%TO.N,SCK*%
X136500000Y-92907500D02*
X137500000Y-91907500D01*
%TO.N,MISO*%
X135000000Y-92907500D02*
X137000000Y-90907500D01*
%TD*%
D11*
%TO.P,J8,1,1*%
%TO.N,Net-(J8-Pad1)*%
X191263400Y-85555500D03*
%TO.P,J8,2,2*%
%TO.N,Net-(J1-Pad2)*%
X193803400Y-85555500D03*
%TD*%
D12*
%TO.P,BZ1,1,+*%
%TO.N,BUZZER*%
X128000000Y-111657500D03*
%TO.P,BZ1,2,-*%
%TO.N,GND*%
X128000000Y-118157500D03*
%TD*%
D11*
%TO.P,J4,1,1*%
%TO.N,SCL*%
X124230000Y-74000000D03*
%TO.P,J4,2,2*%
%TO.N,SDA*%
X126770000Y-74000000D03*
%TD*%
%TO.P,J10,1,1*%
%TO.N,Net-(J10-Pad1)*%
X191263400Y-104055500D03*
%TO.P,J10,2,2*%
%TO.N,Net-(J10-Pad2)*%
X193803400Y-104055500D03*
%TD*%
D13*
%TO.P,J6,1,1*%
%TO.N,Net-(J6-Pad1)*%
X203375000Y-113484499D03*
%TO.P,J6,2,2*%
%TO.N,Net-(J6-Pad2)*%
X203375000Y-118564499D03*
%TD*%
%TO.P,J7,1,1*%
%TO.N,GND*%
X143506600Y-119382500D03*
%TO.P,J7,2,2*%
%TO.N,VIN*%
X138426600Y-119382500D03*
%TD*%
D14*
%TO.P,J5,1,1*%
%TO.N,+5V*%
X134460000Y-73907500D03*
D15*
%TO.P,J5,2,2*%
%TO.N,GND*%
X137000000Y-73907500D03*
%TO.P,J5,3,3*%
%TO.N,SS_CAN_AUX*%
X139540000Y-73907500D03*
%TO.P,J5,4,4*%
%TO.N,MISO*%
X142080000Y-73907500D03*
%TO.P,J5,5,5*%
%TO.N,MOSI*%
X144620000Y-73907500D03*
%TO.P,J5,6,6*%
%TO.N,SCK*%
X147160000Y-73907500D03*
%TO.P,J5,7,7*%
%TO.N,unconnected-(J5-Pad7)*%
X149700000Y-73907500D03*
%TD*%
D13*
%TO.P,J2,1,1*%
%TO.N,Net-(J2-Pad1)*%
X203375000Y-94984499D03*
%TO.P,J2,2,2*%
%TO.N,Net-(J10-Pad2)*%
X203375000Y-100064499D03*
%TD*%
%TO.P,J1,1,1*%
%TO.N,Net-(J1-Pad1)*%
X203399999Y-76911099D03*
%TO.P,J1,2,2*%
%TO.N,Net-(J1-Pad2)*%
X203399999Y-81991099D03*
%TD*%
D11*
%TO.P,J9,1,1*%
%TO.N,Net-(J9-Pad1)*%
X191263400Y-123055500D03*
%TO.P,J9,2,2*%
%TO.N,Net-(J6-Pad2)*%
X193803400Y-123055500D03*
%TD*%
D16*
%TO.N,GND*%
X98899999Y-110991099D03*
X129899999Y-83491099D03*
X98899999Y-89991099D03*
X152500000Y-74000000D03*
X136500000Y-77500000D03*
X130899999Y-83491099D03*
X122399999Y-77491099D03*
X203500000Y-86500000D03*
X152500000Y-93500000D03*
X100000000Y-98500000D03*
X153500000Y-74000000D03*
X136500000Y-78500000D03*
X203500000Y-106000000D03*
X193399999Y-107991099D03*
X98500000Y-79000000D03*
X100000000Y-97000000D03*
X129899999Y-82491099D03*
X119399999Y-126491099D03*
X151500000Y-92500000D03*
X109399999Y-74491099D03*
X164399999Y-88491099D03*
X191899999Y-71991099D03*
X192399999Y-106991099D03*
X117899999Y-81491099D03*
X140899999Y-79991099D03*
X112500000Y-94000000D03*
X117899999Y-80491099D03*
X140899999Y-109491099D03*
X143899999Y-101491099D03*
X192000000Y-126000000D03*
X109399999Y-101491099D03*
X157000000Y-126500000D03*
X192899999Y-71991099D03*
X93399999Y-84991099D03*
X153500000Y-75000000D03*
X165399999Y-107991099D03*
X204500000Y-106000000D03*
X162399999Y-72991099D03*
X158000000Y-126500000D03*
X163399999Y-72991099D03*
X192899999Y-72991099D03*
X148500000Y-90500000D03*
X118399999Y-125491099D03*
X91000000Y-74500000D03*
X97500000Y-78000000D03*
X98500000Y-78000000D03*
X129899999Y-126991099D03*
X112500000Y-97000000D03*
X108399999Y-74491099D03*
X193000000Y-127000000D03*
X164399999Y-87491099D03*
X192899999Y-87991099D03*
X104399999Y-93491099D03*
X139899999Y-109491099D03*
X191899999Y-72991099D03*
X191899999Y-87991099D03*
X203500000Y-105000000D03*
X192399999Y-107991099D03*
X204500000Y-105000000D03*
X163399999Y-71991099D03*
X148500000Y-89500000D03*
X165399999Y-87491099D03*
X121399999Y-77491099D03*
X123899999Y-99491099D03*
X152500000Y-92500000D03*
X158000000Y-125500000D03*
X203500000Y-87500000D03*
X91000000Y-73500000D03*
X112399999Y-91491099D03*
X117399999Y-99491099D03*
X149500000Y-90500000D03*
X92399999Y-84991099D03*
X129899999Y-125991099D03*
X92399999Y-83991099D03*
X118899999Y-81491099D03*
X162399999Y-71991099D03*
X192899999Y-88991099D03*
X144899999Y-101491099D03*
X100000000Y-95500000D03*
X116000000Y-104500000D03*
X164399999Y-107991099D03*
X144899999Y-100491099D03*
X121399999Y-78491099D03*
X135500000Y-77500000D03*
X152500000Y-75000000D03*
X204500000Y-87500000D03*
X99899999Y-111991099D03*
X149500000Y-89500000D03*
X164399999Y-106991099D03*
X115899999Y-87491099D03*
X125399999Y-99491099D03*
X191899999Y-88991099D03*
X122399999Y-78491099D03*
X165399999Y-106991099D03*
X110399999Y-101491099D03*
X131000000Y-99500000D03*
X134000000Y-99500000D03*
X118399999Y-126491099D03*
X143899999Y-100491099D03*
X165399999Y-88491099D03*
X130899999Y-82491099D03*
X110399999Y-100491099D03*
X140899999Y-80991099D03*
X119399999Y-125491099D03*
X139899999Y-108491099D03*
X109399999Y-75491099D03*
X141899999Y-80991099D03*
X192000000Y-127000000D03*
X98899999Y-90991099D03*
X99899999Y-110991099D03*
X108399999Y-75491099D03*
X118899999Y-80491099D03*
X115899999Y-99491099D03*
X193399999Y-106991099D03*
X128899999Y-125991099D03*
X128899999Y-126991099D03*
X98899999Y-111991099D03*
X204500000Y-86500000D03*
X97500000Y-79000000D03*
X135500000Y-78500000D03*
X117399999Y-87491099D03*
X99899999Y-90491099D03*
X193000000Y-126000000D03*
X151500000Y-93500000D03*
X90000000Y-74500000D03*
X157000000Y-125500000D03*
X140899999Y-108491099D03*
X93399999Y-83991099D03*
X90000000Y-73500000D03*
X117500000Y-104500000D03*
X109399999Y-100491099D03*
X141899999Y-79991099D03*
X134899999Y-90991099D03*
%TO.N,+5V*%
X177000000Y-79407500D03*
X111000000Y-84907500D03*
X163000000Y-98907500D03*
X113899999Y-84907500D03*
X162500000Y-119907500D03*
X176500000Y-97907500D03*
X162000000Y-80907500D03*
X116000000Y-84907500D03*
X176399999Y-116491099D03*
X114899999Y-84907500D03*
X111899999Y-84907500D03*
X112899999Y-84907500D03*
%TO.N,RESET*%
X149000000Y-87500000D03*
X150500000Y-121500000D03*
X136000000Y-80500000D03*
X150500000Y-102000000D03*
%TO.N,Net-(IC2-DTR#)*%
X115500000Y-97407500D03*
X119000000Y-94907500D03*
%TO.N,+3.3V*%
X107000000Y-108407500D03*
X108000000Y-91500000D03*
%TO.N,VIN*%
X108500000Y-72907500D03*
X110399999Y-72907500D03*
X111399999Y-72907500D03*
X109399999Y-72907500D03*
%TO.N,Net-(J1-Pad1)*%
X196500000Y-78934499D03*
X188500000Y-82500000D03*
%TO.N,Net-(J2-Pad1)*%
X196500000Y-96934499D03*
X188500000Y-101000000D03*
%TO.N,MISO*%
X153500000Y-98907500D03*
X138600001Y-90907500D03*
X113000000Y-107407500D03*
X153500000Y-117907500D03*
X153500000Y-80907500D03*
X144500000Y-83907500D03*
%TO.N,CD_SIGNAL*%
X133500000Y-91407500D03*
X112600000Y-105307500D03*
%TO.N,SCK*%
X160000000Y-96407500D03*
X152500000Y-78312500D03*
X118500000Y-107000000D03*
X139000000Y-86407500D03*
X161000000Y-114407500D03*
%TO.N,MOSI*%
X155000000Y-116907500D03*
X149000000Y-79407500D03*
X155000000Y-97907500D03*
X141500000Y-91407501D03*
X118500000Y-111000000D03*
%TO.N,Net-(J6-Pad1)*%
X188000000Y-120000000D03*
X196500000Y-115514499D03*
%TO.N,BUZZER*%
X134000000Y-85907500D03*
%TO.N,Net-(U1-PD0(RXD))*%
X127500000Y-92000000D03*
X125000000Y-92000000D03*
%TO.N,SS_SD*%
X138500000Y-93907500D03*
X118500000Y-115000000D03*
%TO.N,SS_CAN2*%
X148000000Y-117407500D03*
X130000000Y-88907500D03*
%TO.N,SS_CAN1*%
X144000000Y-92407500D03*
X146500000Y-93907500D03*
%TD*%
D17*
%TO.N,+5V*%
X163500000Y-79407500D02*
X162000000Y-80907500D01*
X169500000Y-117907500D02*
X169500000Y-116491099D01*
X164000000Y-97907500D02*
X169500000Y-97907500D01*
D18*
X133483598Y-71907500D02*
X134399999Y-71907500D01*
X132638200Y-73991099D02*
X132638200Y-72752898D01*
D17*
X177000000Y-79407500D02*
X169500000Y-79407500D01*
X163000000Y-98907500D02*
X164000000Y-97907500D01*
D18*
X132638200Y-72752898D02*
X133483598Y-71907500D01*
D17*
X169500000Y-116491099D02*
X176399999Y-116491099D01*
D18*
X134399999Y-71907500D02*
X156000000Y-71907500D01*
D10*
X134399999Y-71907500D02*
X134399999Y-73847499D01*
D18*
X134399999Y-73847499D02*
X134460000Y-73907500D01*
D17*
X162500000Y-119907500D02*
X167500000Y-119907500D01*
D18*
X169500000Y-79407500D02*
X163500000Y-79407500D01*
X134376401Y-73991099D02*
X134460000Y-73907500D01*
X169500000Y-79407500D02*
X169500000Y-97907500D01*
X132638200Y-75729300D02*
X132638200Y-73991099D01*
X111000000Y-84907500D02*
X123460000Y-84907500D01*
X156000000Y-71907500D02*
X163500000Y-79407500D01*
D10*
X132638200Y-73991099D02*
X134376401Y-73991099D01*
D17*
X167500000Y-119907500D02*
X169500000Y-117907500D01*
D18*
X123460000Y-84907500D02*
X132638200Y-75729300D01*
X169500000Y-116491099D02*
X169500000Y-97907500D01*
X110983598Y-84907500D02*
X111000000Y-84907500D01*
D17*
X169500000Y-97907500D02*
X176500000Y-97907500D01*
D10*
%TO.N,RESET*%
X149000000Y-87500000D02*
X150500000Y-89000000D01*
X150500000Y-102000000D02*
X150500000Y-121500000D01*
X136000000Y-80500000D02*
X138000000Y-80500000D01*
X150500000Y-101500000D02*
X150500000Y-102000000D01*
X150500000Y-89000000D02*
X150500000Y-101500000D01*
X138000000Y-80500000D02*
X145000000Y-87500000D01*
X145000000Y-87500000D02*
X149000000Y-87500000D01*
%TO.N,Net-(IC2-DTR#)*%
X115500000Y-96407500D02*
X117000000Y-94907500D01*
X117000000Y-94907500D02*
X119000000Y-94907500D01*
X115500000Y-97407500D02*
X115500000Y-96407500D01*
%TO.N,+3.3V*%
X107000000Y-92500000D02*
X108000000Y-91500000D01*
X107000000Y-108407500D02*
X107000000Y-92500000D01*
D19*
%TO.N,VIN*%
X106000000Y-73907500D02*
X106000000Y-109907500D01*
X108500000Y-72907500D02*
X109399999Y-72907500D01*
X110399999Y-72907500D02*
X111316400Y-72907500D01*
X111316400Y-72907500D02*
X111399999Y-72991099D01*
X109399999Y-72907500D02*
X110399999Y-72907500D01*
X117500000Y-121407500D02*
X136401600Y-121407500D01*
X108500000Y-72907500D02*
X107000000Y-72907500D01*
X107000000Y-72907500D02*
X106000000Y-73907500D01*
X106000000Y-109907500D02*
X117500000Y-121407500D01*
X136401600Y-121407500D02*
X138426600Y-119382500D01*
D10*
%TO.N,Net-(J1-Pad1)*%
X196500000Y-79500000D02*
X193500000Y-82500000D01*
X196500000Y-78934499D02*
X196500000Y-79500000D01*
X193500000Y-82500000D02*
X188500000Y-82500000D01*
%TO.N,Net-(J2-Pad1)*%
X193000000Y-101000000D02*
X188500000Y-101000000D01*
X196500000Y-96934499D02*
X196500000Y-97500000D01*
X196500000Y-97500000D02*
X193000000Y-101000000D01*
%TO.N,MISO*%
X134000000Y-93907500D02*
X135000000Y-92907500D01*
X116500000Y-93907500D02*
X134000000Y-93907500D01*
X113000000Y-107407500D02*
X114500000Y-105907500D01*
X114500000Y-105907500D02*
X114500000Y-95907500D01*
X153500000Y-108907500D02*
X153500000Y-117907500D01*
X114500000Y-95907500D02*
X116500000Y-93907500D01*
X144500000Y-83907500D02*
X147500000Y-80907500D01*
X153500000Y-80907500D02*
X153500000Y-108907500D01*
X142080000Y-75487500D02*
X142080000Y-73907500D01*
X147500000Y-80907500D02*
X153500000Y-80907500D01*
X147500000Y-80907500D02*
X142080000Y-75487500D01*
%TO.N,CD_SIGNAL*%
X116000000Y-92907500D02*
X133000000Y-92907500D01*
X113500000Y-95407500D02*
X116000000Y-92907500D01*
X112600000Y-105307500D02*
X113500000Y-104407500D01*
X133500000Y-92407500D02*
X133500000Y-91407500D01*
X133000000Y-92907500D02*
X133500000Y-92407500D01*
X113500000Y-104407500D02*
X113500000Y-95407500D01*
%TO.N,SCK*%
X140000000Y-91407500D02*
X140000000Y-88407500D01*
X134500000Y-94907500D02*
X136500000Y-92907500D01*
X119000000Y-97407500D02*
X119000000Y-96407500D01*
X161000000Y-83907500D02*
X161000000Y-96407500D01*
X152500000Y-78312500D02*
X155405000Y-78312500D01*
X127000000Y-94907500D02*
X134500000Y-94907500D01*
X155405000Y-78312500D02*
X157500000Y-80407500D01*
X139500000Y-91907500D02*
X140000000Y-91407500D01*
X157500000Y-80407500D02*
X161000000Y-83907500D01*
X160000000Y-96407500D02*
X161000000Y-96407500D01*
X119000000Y-96407500D02*
X120500000Y-94907500D01*
X161000000Y-96407500D02*
X161000000Y-114407500D01*
X119000000Y-97407500D02*
X119000000Y-106500000D01*
X119000000Y-106500000D02*
X118500000Y-107000000D01*
X140000000Y-88407500D02*
X140000000Y-87407500D01*
X140000000Y-87407500D02*
X139000000Y-86407500D01*
X120500000Y-94907500D02*
X127000000Y-94907500D01*
%TO.N,MOSI*%
X120000000Y-96907500D02*
X121000000Y-95907500D01*
X121000000Y-95907500D02*
X135000000Y-95907500D01*
X138000000Y-92907500D02*
X140000000Y-92907500D01*
X140000000Y-92907500D02*
X141500000Y-91407500D01*
X120000000Y-109500000D02*
X118750000Y-110750000D01*
X120000000Y-96907500D02*
X120000000Y-109500000D01*
X149000000Y-79407500D02*
X154000000Y-79407500D01*
X149000000Y-79407500D02*
X148000000Y-79407500D01*
X155000000Y-80407500D02*
X155000000Y-97907500D01*
X148000000Y-79407500D02*
X144620000Y-76027500D01*
X155000000Y-109907500D02*
X155000000Y-116907500D01*
X141500000Y-91407500D02*
X141500000Y-91407501D01*
X135000000Y-95907500D02*
X138000000Y-92907500D01*
X154000000Y-79407500D02*
X155000000Y-80407500D01*
X155000000Y-97907500D02*
X155000000Y-109907500D01*
X118750000Y-110750000D02*
X118500000Y-111000000D01*
X144620000Y-76027500D02*
X144620000Y-73907500D01*
D17*
%TO.N,BUZZER*%
X136000000Y-97907500D02*
X140000000Y-93907500D01*
X140500000Y-93907500D02*
X142500000Y-91907500D01*
X139000000Y-85407500D02*
X134500000Y-85407500D01*
X128000000Y-111657500D02*
X128000000Y-99907500D01*
X134500000Y-85407500D02*
X134000000Y-85907500D01*
X142500000Y-91907500D02*
X142500000Y-88907500D01*
X140000000Y-93907500D02*
X140500000Y-93907500D01*
X130000000Y-97907500D02*
X136000000Y-97907500D01*
X142500000Y-88907500D02*
X139000000Y-85407500D01*
X128000000Y-99907500D02*
X130000000Y-97907500D01*
D10*
%TO.N,Net-(U1-PD0(RXD))*%
X125000000Y-92000000D02*
X127500000Y-92000000D01*
%TO.N,SS_SD*%
X121000000Y-97907500D02*
X121000000Y-112500000D01*
X121000000Y-112500000D02*
X118500000Y-115000000D01*
X135500000Y-96907500D02*
X138500000Y-93907500D01*
X122000000Y-96907500D02*
X135500000Y-96907500D01*
X121000000Y-97907500D02*
X122000000Y-96907500D01*
%TO.N,SS_CAN2*%
X135000000Y-83907500D02*
X139500000Y-83907500D01*
X134000000Y-83907500D02*
X135000000Y-83907500D01*
X130000000Y-87907500D02*
X130500000Y-87407500D01*
X148000000Y-92407500D02*
X148000000Y-117407500D01*
X130000000Y-88907500D02*
X130000000Y-87907500D01*
X139500000Y-83907500D02*
X140000000Y-84407500D01*
X130500000Y-87407500D02*
X134000000Y-83907500D01*
X140000000Y-84407500D02*
X148000000Y-92407500D01*
%TO.N,SS_CAN1*%
X146500000Y-93907500D02*
X145000000Y-92407500D01*
X145000000Y-92407500D02*
X144000000Y-92407500D01*
%TD*%
%TA.AperFunction,Conductor*%
%TO.N,GND*%
G36*
X136271237Y-72826907D02*
G01*
X136283050Y-72836996D01*
X136843319Y-73397265D01*
X136794115Y-73410450D01*
X136672485Y-73480674D01*
X136573174Y-73579985D01*
X136502950Y-73701615D01*
X136489765Y-73750819D01*
X135929544Y-73190598D01*
X135898917Y-73232752D01*
X135898915Y-73232756D01*
X135835108Y-73357985D01*
X135791844Y-73401250D01*
X135731412Y-73410821D01*
X135676895Y-73383043D01*
X135649118Y-73328527D01*
X135647899Y-73313040D01*
X135647899Y-73088578D01*
X135647898Y-73088576D01*
X135633047Y-72994800D01*
X135633046Y-72994797D01*
X135633046Y-72994796D01*
X135611211Y-72951944D01*
X135601641Y-72891513D01*
X135629418Y-72836997D01*
X135683935Y-72809219D01*
X135699422Y-72808000D01*
X136213046Y-72808000D01*
X136271237Y-72826907D01*
G37*
%TD.AperFunction*%
%TA.AperFunction,Conductor*%
G36*
X138785857Y-72826907D02*
G01*
X138821821Y-72876407D01*
X138821821Y-72937593D01*
X138785858Y-72987091D01*
X138785856Y-72987093D01*
X138766139Y-73001417D01*
X138633920Y-73133636D01*
X138524015Y-73284907D01*
X138439128Y-73451508D01*
X138439126Y-73451511D01*
X138416464Y-73521259D01*
X138380500Y-73570759D01*
X138322309Y-73589666D01*
X138264119Y-73570758D01*
X138228155Y-73521259D01*
X138193079Y-73413309D01*
X138101083Y-73232755D01*
X138101079Y-73232749D01*
X138070454Y-73190598D01*
X138070453Y-73190598D01*
X137510233Y-73750818D01*
X137497050Y-73701615D01*
X137426826Y-73579985D01*
X137327515Y-73480674D01*
X137205885Y-73410450D01*
X137156678Y-73397265D01*
X137716949Y-72836996D01*
X137771466Y-72809219D01*
X137786953Y-72808000D01*
X138727666Y-72808000D01*
X138785857Y-72826907D01*
G37*
%TD.AperFunction*%
%TA.AperFunction,Conductor*%
G36*
X207358690Y-70010506D02*
G01*
X207394654Y-70060006D01*
X207399499Y-70090599D01*
X207399499Y-128891599D01*
X207380592Y-128949790D01*
X207331092Y-128985754D01*
X207300499Y-128990599D01*
X88499499Y-128990599D01*
X88441308Y-128971692D01*
X88405344Y-128922192D01*
X88400499Y-128891599D01*
X88400499Y-122968003D01*
X190151700Y-122968003D01*
X190151700Y-123142996D01*
X190179071Y-123315819D01*
X190179073Y-123315824D01*
X190233147Y-123482245D01*
X190275053Y-123564491D01*
X190312588Y-123638157D01*
X190312590Y-123638161D01*
X190415437Y-123779718D01*
X190415439Y-123779720D01*
X190415442Y-123779724D01*
X190539176Y-123903458D01*
X190539179Y-123903460D01*
X190539181Y-123903462D01*
X190680738Y-124006309D01*
X190680742Y-124006311D01*
X190836655Y-124085753D01*
X191003076Y-124139827D01*
X191003077Y-124139827D01*
X191003080Y-124139828D01*
X191175904Y-124167200D01*
X191175907Y-124167200D01*
X191350896Y-124167200D01*
X191523719Y-124139828D01*
X191523720Y-124139827D01*
X191523724Y-124139827D01*
X191690145Y-124085753D01*
X191846058Y-124006311D01*
X191987624Y-123903458D01*
X192111358Y-123779724D01*
X192214211Y-123638158D01*
X192293653Y-123482245D01*
X192347727Y-123315824D01*
X192375100Y-123142993D01*
X192375100Y-122968007D01*
X192375100Y-122968003D01*
X192691700Y-122968003D01*
X192691700Y-123142996D01*
X192719071Y-123315819D01*
X192719073Y-123315824D01*
X192773147Y-123482245D01*
X192815053Y-123564491D01*
X192852588Y-123638157D01*
X192852590Y-123638161D01*
X192955437Y-123779718D01*
X192955439Y-123779720D01*
X192955442Y-123779724D01*
X193079176Y-123903458D01*
X193079179Y-123903460D01*
X193079181Y-123903462D01*
X193220738Y-124006309D01*
X193220742Y-124006311D01*
X193376655Y-124085753D01*
X193543076Y-124139827D01*
X193543077Y-124139827D01*
X193543080Y-124139828D01*
X193715904Y-124167200D01*
X193715907Y-124167200D01*
X193890896Y-124167200D01*
X194063719Y-124139828D01*
X194063720Y-124139827D01*
X194063724Y-124139827D01*
X194230145Y-124085753D01*
X194386058Y-124006311D01*
X194527624Y-123903458D01*
X194651358Y-123779724D01*
X194754211Y-123638158D01*
X194833653Y-123482245D01*
X194887727Y-123315824D01*
X194915100Y-123142993D01*
X194915100Y-122968007D01*
X194915100Y-122968003D01*
X194887728Y-122795180D01*
X194833654Y-122628759D01*
X194833653Y-122628755D01*
X194754211Y-122472842D01*
X194754209Y-122472838D01*
X194651362Y-122331281D01*
X194651360Y-122331279D01*
X194651358Y-122331276D01*
X194527624Y-122207542D01*
X194527620Y-122207539D01*
X194527618Y-122207537D01*
X194386061Y-122104690D01*
X194386057Y-122104688D01*
X194267173Y-122044114D01*
X194230145Y-122025247D01*
X194230142Y-122025246D01*
X194230140Y-122025245D01*
X194063719Y-121971171D01*
X193890896Y-121943800D01*
X193890893Y-121943800D01*
X193715907Y-121943800D01*
X193715904Y-121943800D01*
X193543080Y-121971171D01*
X193376659Y-122025245D01*
X193220742Y-122104688D01*
X193220738Y-122104690D01*
X193079181Y-122207537D01*
X192955437Y-122331281D01*
X192852590Y-122472838D01*
X192852588Y-122472842D01*
X192773145Y-122628759D01*
X192719071Y-122795180D01*
X192691700Y-122968003D01*
X192375100Y-122968003D01*
X192347728Y-122795180D01*
X192293654Y-122628759D01*
X192293653Y-122628755D01*
X192214211Y-122472842D01*
X192214209Y-122472838D01*
X192111362Y-122331281D01*
X192111360Y-122331279D01*
X192111358Y-122331276D01*
X191987624Y-122207542D01*
X191987620Y-122207539D01*
X191987618Y-122207537D01*
X191846061Y-122104690D01*
X191846057Y-122104688D01*
X191727173Y-122044114D01*
X191690145Y-122025247D01*
X191690142Y-122025246D01*
X191690140Y-122025245D01*
X191523719Y-121971171D01*
X191350896Y-121943800D01*
X191350893Y-121943800D01*
X191175907Y-121943800D01*
X191175904Y-121943800D01*
X191003080Y-121971171D01*
X190836659Y-122025245D01*
X190680742Y-122104688D01*
X190680738Y-122104690D01*
X190539181Y-122207537D01*
X190415437Y-122331281D01*
X190312590Y-122472838D01*
X190312588Y-122472842D01*
X190233145Y-122628759D01*
X190179071Y-122795180D01*
X190151700Y-122968003D01*
X88400499Y-122968003D01*
X88400499Y-114833581D01*
X99249500Y-114833581D01*
X99249500Y-114981418D01*
X99266920Y-115068995D01*
X99278342Y-115126413D01*
X99334916Y-115262995D01*
X99417049Y-115385916D01*
X99521584Y-115490451D01*
X99644505Y-115572584D01*
X99781087Y-115629158D01*
X99926082Y-115658000D01*
X99926083Y-115658000D01*
X100073917Y-115658000D01*
X100073918Y-115658000D01*
X100218913Y-115629158D01*
X100355495Y-115572584D01*
X100478416Y-115490451D01*
X100582951Y-115385916D01*
X100665084Y-115262995D01*
X100721658Y-115126413D01*
X100750500Y-114981418D01*
X100750500Y-114833582D01*
X100721658Y-114688587D01*
X100665084Y-114552005D01*
X100582951Y-114429084D01*
X100478416Y-114324549D01*
X100355495Y-114242416D01*
X100355493Y-114242415D01*
X100218914Y-114185842D01*
X100073918Y-114157000D01*
X99926082Y-114157000D01*
X99926081Y-114157000D01*
X99781085Y-114185842D01*
X99644506Y-114242415D01*
X99521585Y-114324548D01*
X99417048Y-114429085D01*
X99334915Y-114552006D01*
X99278342Y-114688585D01*
X99249500Y-114833581D01*
X88400499Y-114833581D01*
X88400499Y-106833581D01*
X99249500Y-106833581D01*
X99249500Y-106981418D01*
X99278342Y-107126414D01*
X99310615Y-107204327D01*
X99334916Y-107262995D01*
X99417049Y-107385916D01*
X99521584Y-107490451D01*
X99644505Y-107572584D01*
X99781087Y-107629158D01*
X99926082Y-107658000D01*
X99926083Y-107658000D01*
X100073917Y-107658000D01*
X100073918Y-107658000D01*
X100218913Y-107629158D01*
X100355495Y-107572584D01*
X100478416Y-107490451D01*
X100582951Y-107385916D01*
X100665084Y-107262995D01*
X100721658Y-107126413D01*
X100750500Y-106981418D01*
X100750500Y-106833582D01*
X100721658Y-106688587D01*
X100665084Y-106552005D01*
X100582951Y-106429084D01*
X100478416Y-106324549D01*
X100355495Y-106242416D01*
X100355493Y-106242415D01*
X100218914Y-106185842D01*
X100073918Y-106157000D01*
X99926082Y-106157000D01*
X99926081Y-106157000D01*
X99781085Y-106185842D01*
X99644506Y-106242415D01*
X99521585Y-106324548D01*
X99417048Y-106429085D01*
X99334915Y-106552006D01*
X99278342Y-106688585D01*
X99249500Y-106833581D01*
X88400499Y-106833581D01*
X88400499Y-96023542D01*
X93557500Y-96023542D01*
X93557500Y-96166457D01*
X93575040Y-96254634D01*
X93581418Y-96286699D01*
X93585381Y-96306619D01*
X93585381Y-96306621D01*
X93640068Y-96438648D01*
X93640074Y-96438659D01*
X93665356Y-96476495D01*
X93719468Y-96557479D01*
X93820521Y-96658532D01*
X93891362Y-96705866D01*
X93939340Y-96737925D01*
X93939351Y-96737931D01*
X93988121Y-96758132D01*
X94071380Y-96792619D01*
X94211545Y-96820500D01*
X94211546Y-96820500D01*
X94354454Y-96820500D01*
X94354455Y-96820500D01*
X94494620Y-96792619D01*
X94626653Y-96737929D01*
X94745479Y-96658532D01*
X94846532Y-96557479D01*
X94925929Y-96438653D01*
X94980619Y-96306620D01*
X95008500Y-96166455D01*
X95008500Y-96023545D01*
X94980619Y-95883380D01*
X94949275Y-95807709D01*
X94925931Y-95751351D01*
X94925925Y-95751340D01*
X94880920Y-95683986D01*
X94846532Y-95632521D01*
X94745479Y-95531468D01*
X94674986Y-95484366D01*
X94626659Y-95452074D01*
X94626648Y-95452068D01*
X94494620Y-95397381D01*
X94354457Y-95369500D01*
X94354455Y-95369500D01*
X94211545Y-95369500D01*
X94211542Y-95369500D01*
X94071380Y-95397381D01*
X94071378Y-95397381D01*
X93939351Y-95452068D01*
X93939340Y-95452074D01*
X93820521Y-95531468D01*
X93820517Y-95531471D01*
X93719471Y-95632517D01*
X93719468Y-95632521D01*
X93640074Y-95751340D01*
X93640068Y-95751351D01*
X93585381Y-95883378D01*
X93585381Y-95883380D01*
X93557500Y-96023542D01*
X88400499Y-96023542D01*
X88400499Y-91623542D01*
X93557500Y-91623542D01*
X93557500Y-91766457D01*
X93585381Y-91906619D01*
X93585381Y-91906621D01*
X93640068Y-92038648D01*
X93640074Y-92038659D01*
X93686407Y-92108000D01*
X93719468Y-92157479D01*
X93820521Y-92258532D01*
X93891362Y-92305866D01*
X93939340Y-92337925D01*
X93939351Y-92337931D01*
X93988121Y-92358132D01*
X94071380Y-92392619D01*
X94211545Y-92420500D01*
X94211546Y-92420500D01*
X94354454Y-92420500D01*
X94354455Y-92420500D01*
X94494620Y-92392619D01*
X94626653Y-92337929D01*
X94745479Y-92258532D01*
X94846532Y-92157479D01*
X94925929Y-92038653D01*
X94980619Y-91906620D01*
X95008500Y-91766455D01*
X95008500Y-91623545D01*
X94980619Y-91483380D01*
X94937478Y-91379228D01*
X94925931Y-91351351D01*
X94925925Y-91351340D01*
X94872469Y-91271339D01*
X94846532Y-91232521D01*
X94745479Y-91131468D01*
X94698143Y-91099839D01*
X94626659Y-91052074D01*
X94626648Y-91052068D01*
X94494620Y-90997381D01*
X94354457Y-90969500D01*
X94354455Y-90969500D01*
X94211545Y-90969500D01*
X94211542Y-90969500D01*
X94071380Y-90997381D01*
X94071378Y-90997381D01*
X93939351Y-91052068D01*
X93939340Y-91052074D01*
X93820521Y-91131468D01*
X93820517Y-91131471D01*
X93719471Y-91232517D01*
X93719468Y-91232521D01*
X93640074Y-91351340D01*
X93640068Y-91351351D01*
X93585381Y-91483378D01*
X93585381Y-91483380D01*
X93557500Y-91623542D01*
X88400499Y-91623542D01*
X88400499Y-73828655D01*
X105199500Y-73828655D01*
X105199500Y-109986344D01*
X105230263Y-110140996D01*
X105230263Y-110140998D01*
X105290603Y-110286674D01*
X105290609Y-110286685D01*
X105317160Y-110326420D01*
X105378211Y-110417789D01*
X116989711Y-122029289D01*
X117067876Y-122081517D01*
X117120814Y-122116890D01*
X117120825Y-122116896D01*
X117130195Y-122120777D01*
X117266503Y-122177237D01*
X117421158Y-122208000D01*
X117421159Y-122208000D01*
X136480441Y-122208000D01*
X136480442Y-122208000D01*
X136635097Y-122177237D01*
X136780779Y-122116894D01*
X136911889Y-122029289D01*
X138230058Y-120711118D01*
X138284573Y-120683343D01*
X138315547Y-120683343D01*
X138324115Y-120684700D01*
X138324116Y-120684700D01*
X138529088Y-120684700D01*
X138731534Y-120652636D01*
X138731538Y-120652635D01*
X138926464Y-120589299D01*
X138926466Y-120589297D01*
X138926471Y-120589296D01*
X139109102Y-120496242D01*
X139240880Y-120400500D01*
X139247880Y-120395414D01*
X139274927Y-120375763D01*
X139419863Y-120230827D01*
X139540342Y-120065002D01*
X139633396Y-119882371D01*
X139633397Y-119882366D01*
X139633399Y-119882364D01*
X139696735Y-119687438D01*
X139696736Y-119687434D01*
X139728800Y-119484988D01*
X139728800Y-119280011D01*
X139727560Y-119272180D01*
X142104900Y-119272180D01*
X142104900Y-119492819D01*
X142139413Y-119710727D01*
X142207594Y-119920566D01*
X142307758Y-120117149D01*
X142354314Y-120181230D01*
X142907317Y-119628226D01*
X142932616Y-119689301D01*
X143003499Y-119795385D01*
X143093715Y-119885601D01*
X143199799Y-119956484D01*
X143260871Y-119981781D01*
X142707868Y-120534784D01*
X142771945Y-120581339D01*
X142771949Y-120581341D01*
X142968533Y-120681505D01*
X143178372Y-120749686D01*
X143396281Y-120784200D01*
X143616919Y-120784200D01*
X143834827Y-120749686D01*
X144044666Y-120681505D01*
X144241250Y-120581341D01*
X144241256Y-120581337D01*
X144305330Y-120534784D01*
X144305330Y-120534783D01*
X143752328Y-119981781D01*
X143813401Y-119956484D01*
X143919485Y-119885601D01*
X144009701Y-119795385D01*
X144080584Y-119689301D01*
X144105881Y-119628228D01*
X144658883Y-120181230D01*
X144658884Y-120181230D01*
X144705437Y-120117156D01*
X144705441Y-120117150D01*
X144805605Y-119920566D01*
X144873786Y-119710727D01*
X144908300Y-119492819D01*
X144908300Y-119272180D01*
X144873786Y-119054272D01*
X144805605Y-118844433D01*
X144705441Y-118647849D01*
X144705439Y-118647845D01*
X144658884Y-118583768D01*
X144105881Y-119136771D01*
X144080584Y-119075699D01*
X144009701Y-118969615D01*
X143919485Y-118879399D01*
X143813401Y-118808516D01*
X143752326Y-118783217D01*
X144305330Y-118230214D01*
X144241249Y-118183658D01*
X144044666Y-118083494D01*
X143834827Y-118015313D01*
X143616919Y-117980800D01*
X143396281Y-117980800D01*
X143178372Y-118015313D01*
X142968533Y-118083494D01*
X142771944Y-118183661D01*
X142707868Y-118230214D01*
X143260872Y-118783218D01*
X143199799Y-118808516D01*
X143093715Y-118879399D01*
X143003499Y-118969615D01*
X142932616Y-119075699D01*
X142907318Y-119136772D01*
X142354314Y-118583768D01*
X142307761Y-118647844D01*
X142207594Y-118844433D01*
X142139413Y-119054272D01*
X142104900Y-119272180D01*
X139727560Y-119272180D01*
X139696736Y-119077565D01*
X139696735Y-119077561D01*
X139633399Y-118882635D01*
X139633397Y-118882632D01*
X139633396Y-118882631D01*
X139633396Y-118882629D01*
X139540342Y-118699998D01*
X139419863Y-118534173D01*
X139274927Y-118389237D01*
X139160103Y-118305812D01*
X139109100Y-118268756D01*
X138926467Y-118175702D01*
X138926464Y-118175700D01*
X138731538Y-118112364D01*
X138731534Y-118112363D01*
X138529088Y-118080300D01*
X138529085Y-118080300D01*
X138324115Y-118080300D01*
X138324112Y-118080300D01*
X138121665Y-118112363D01*
X138121661Y-118112364D01*
X137926735Y-118175700D01*
X137926732Y-118175702D01*
X137744099Y-118268757D01*
X137578274Y-118389236D01*
X137433336Y-118534174D01*
X137312857Y-118699999D01*
X137219802Y-118882632D01*
X137219800Y-118882635D01*
X137156464Y-119077561D01*
X137156463Y-119077565D01*
X137124400Y-119280011D01*
X137124400Y-119484990D01*
X137125756Y-119493552D01*
X137116184Y-119553984D01*
X137097979Y-119579041D01*
X136099018Y-120578004D01*
X136044501Y-120605781D01*
X136029014Y-120607000D01*
X117872586Y-120607000D01*
X117814395Y-120588093D01*
X117802582Y-120578004D01*
X115267760Y-118043182D01*
X126547500Y-118043182D01*
X126547500Y-118271817D01*
X126583264Y-118497623D01*
X126653916Y-118715066D01*
X126757710Y-118918775D01*
X126757712Y-118918779D01*
X126811345Y-118992598D01*
X127517036Y-118286906D01*
X127534075Y-118350493D01*
X127599901Y-118464507D01*
X127692993Y-118557599D01*
X127807007Y-118623425D01*
X127870591Y-118640462D01*
X127164900Y-119346153D01*
X127238720Y-119399787D01*
X127238724Y-119399789D01*
X127442433Y-119503583D01*
X127659876Y-119574235D01*
X127885683Y-119610000D01*
X128114317Y-119610000D01*
X128340123Y-119574235D01*
X128557566Y-119503583D01*
X128761275Y-119399789D01*
X128761281Y-119399785D01*
X128835098Y-119346153D01*
X128835098Y-119346152D01*
X128129408Y-118640462D01*
X128192993Y-118623425D01*
X128307007Y-118557599D01*
X128400099Y-118464507D01*
X128465925Y-118350493D01*
X128482962Y-118286908D01*
X129188652Y-118992598D01*
X129188653Y-118992598D01*
X129242285Y-118918781D01*
X129242289Y-118918775D01*
X129346083Y-118715066D01*
X129416735Y-118497623D01*
X129452500Y-118271817D01*
X129452500Y-118043182D01*
X129416735Y-117817376D01*
X129346083Y-117599933D01*
X129242289Y-117396224D01*
X129242287Y-117396220D01*
X129188653Y-117322400D01*
X128482962Y-118028091D01*
X128465925Y-117964507D01*
X128400099Y-117850493D01*
X128307007Y-117757401D01*
X128192993Y-117691575D01*
X128129406Y-117674536D01*
X128835098Y-116968845D01*
X128761279Y-116915212D01*
X128761275Y-116915210D01*
X128557566Y-116811416D01*
X128340123Y-116740764D01*
X128114317Y-116705000D01*
X127885683Y-116705000D01*
X127659876Y-116740764D01*
X127442433Y-116811416D01*
X127238727Y-116915209D01*
X127164901Y-116968846D01*
X127870592Y-117674537D01*
X127807007Y-117691575D01*
X127692993Y-117757401D01*
X127599901Y-117850493D01*
X127534075Y-117964507D01*
X127517037Y-118028092D01*
X126811346Y-117322401D01*
X126757709Y-117396227D01*
X126653916Y-117599933D01*
X126583264Y-117817376D01*
X126547500Y-118043182D01*
X115267760Y-118043182D01*
X106829496Y-109604918D01*
X106801719Y-109550401D01*
X106800500Y-109534914D01*
X106800500Y-109202672D01*
X106819407Y-109144481D01*
X106868907Y-109108517D01*
X106918816Y-109105575D01*
X106931007Y-109108000D01*
X106931008Y-109108000D01*
X107068992Y-109108000D01*
X107068993Y-109108000D01*
X107204328Y-109081080D01*
X107331811Y-109028275D01*
X107446542Y-108951614D01*
X107544114Y-108854042D01*
X107620775Y-108739311D01*
X107673580Y-108611828D01*
X107700500Y-108476493D01*
X107700500Y-108338507D01*
X107673580Y-108203172D01*
X107620775Y-108075689D01*
X107620774Y-108075687D01*
X107620771Y-108075682D01*
X107544114Y-107960958D01*
X107529496Y-107946340D01*
X107501719Y-107891823D01*
X107500500Y-107876336D01*
X107500500Y-105238504D01*
X111899500Y-105238504D01*
X111899500Y-105376495D01*
X111926420Y-105511827D01*
X111926420Y-105511829D01*
X111979222Y-105639306D01*
X111979228Y-105639317D01*
X112055885Y-105754041D01*
X112153458Y-105851614D01*
X112268182Y-105928271D01*
X112268193Y-105928277D01*
X112315283Y-105947782D01*
X112395672Y-105981080D01*
X112531007Y-106008000D01*
X112531008Y-106008000D01*
X112668992Y-106008000D01*
X112668993Y-106008000D01*
X112804328Y-105981080D01*
X112931811Y-105928275D01*
X113046542Y-105851614D01*
X113144114Y-105754042D01*
X113220775Y-105639311D01*
X113273580Y-105511828D01*
X113300500Y-105376493D01*
X113300500Y-105355820D01*
X113319407Y-105297629D01*
X113329496Y-105285817D01*
X113799160Y-104816152D01*
X113799163Y-104816149D01*
X113807311Y-104808000D01*
X113807314Y-104808000D01*
X113830499Y-104784815D01*
X113856202Y-104771719D01*
X113885013Y-104757040D01*
X113885016Y-104757039D01*
X113914731Y-104761746D01*
X113945445Y-104766611D01*
X113945446Y-104766612D01*
X113945448Y-104766613D01*
X113955598Y-104776764D01*
X113988710Y-104809876D01*
X113999500Y-104854821D01*
X113999500Y-105659178D01*
X113980593Y-105717369D01*
X113970504Y-105729182D01*
X113021682Y-106678004D01*
X112967165Y-106705781D01*
X112951678Y-106707000D01*
X112931004Y-106707000D01*
X112795672Y-106733920D01*
X112795670Y-106733920D01*
X112668193Y-106786722D01*
X112668182Y-106786728D01*
X112553458Y-106863385D01*
X112455885Y-106960958D01*
X112379228Y-107075682D01*
X112379222Y-107075693D01*
X112326420Y-107203170D01*
X112326420Y-107203172D01*
X112299500Y-107338504D01*
X112299500Y-107476495D01*
X112326420Y-107611827D01*
X112326420Y-107611829D01*
X112379222Y-107739306D01*
X112379228Y-107739317D01*
X112455885Y-107854041D01*
X112553458Y-107951614D01*
X112668182Y-108028271D01*
X112668193Y-108028277D01*
X112715283Y-108047782D01*
X112795672Y-108081080D01*
X112931007Y-108108000D01*
X112931008Y-108108000D01*
X113068992Y-108108000D01*
X113068993Y-108108000D01*
X113204328Y-108081080D01*
X113331811Y-108028275D01*
X113446542Y-107951614D01*
X113544114Y-107854042D01*
X113620775Y-107739311D01*
X113673580Y-107611828D01*
X113700500Y-107476493D01*
X113700500Y-107455821D01*
X113719407Y-107397630D01*
X113729490Y-107385823D01*
X114900499Y-106214815D01*
X114913276Y-106192686D01*
X114966392Y-106100686D01*
X114991227Y-106008000D01*
X115000500Y-105973393D01*
X115000500Y-105841608D01*
X115000500Y-98101445D01*
X115019407Y-98043254D01*
X115068907Y-98007290D01*
X115130093Y-98007290D01*
X115154503Y-98019131D01*
X115168180Y-98028270D01*
X115168193Y-98028277D01*
X115215283Y-98047782D01*
X115295672Y-98081080D01*
X115431007Y-98108000D01*
X115431008Y-98108000D01*
X115568992Y-98108000D01*
X115568993Y-98108000D01*
X115704328Y-98081080D01*
X115831811Y-98028275D01*
X115946542Y-97951614D01*
X116044114Y-97854042D01*
X116120775Y-97739311D01*
X116173580Y-97611828D01*
X116200500Y-97476493D01*
X116200500Y-97338507D01*
X116173580Y-97203172D01*
X116134158Y-97107999D01*
X116120777Y-97075693D01*
X116120771Y-97075682D01*
X116044114Y-96960958D01*
X116029496Y-96946340D01*
X116001719Y-96891823D01*
X116000500Y-96876336D01*
X116000500Y-96655822D01*
X116019407Y-96597631D01*
X116029496Y-96585818D01*
X117178318Y-95436996D01*
X117232835Y-95409219D01*
X117248322Y-95408000D01*
X118468836Y-95408000D01*
X118527027Y-95426907D01*
X118538840Y-95436996D01*
X118553458Y-95451614D01*
X118668182Y-95528271D01*
X118668193Y-95528277D01*
X118715283Y-95547782D01*
X118795672Y-95581080D01*
X118883370Y-95598524D01*
X118936754Y-95628421D01*
X118962370Y-95683986D01*
X118950433Y-95743995D01*
X118934061Y-95765623D01*
X118692686Y-96007000D01*
X118692685Y-96006999D01*
X118599500Y-96100185D01*
X118599496Y-96100190D01*
X118533609Y-96214309D01*
X118533608Y-96214314D01*
X118506972Y-96313724D01*
X118499500Y-96341609D01*
X118499500Y-106204628D01*
X118480593Y-106262819D01*
X118431093Y-106298783D01*
X118419815Y-106301726D01*
X118295670Y-106326420D01*
X118168193Y-106379222D01*
X118168182Y-106379228D01*
X118053458Y-106455885D01*
X117955885Y-106553458D01*
X117879228Y-106668182D01*
X117879222Y-106668193D01*
X117826420Y-106795670D01*
X117826420Y-106795672D01*
X117799500Y-106931004D01*
X117799500Y-107068995D01*
X117826420Y-107204327D01*
X117826420Y-107204329D01*
X117879222Y-107331806D01*
X117879228Y-107331817D01*
X117955885Y-107446541D01*
X118053458Y-107544114D01*
X118168182Y-107620771D01*
X118168193Y-107620777D01*
X118188425Y-107629157D01*
X118295672Y-107673580D01*
X118431007Y-107700500D01*
X118431008Y-107700500D01*
X118568992Y-107700500D01*
X118568993Y-107700500D01*
X118704328Y-107673580D01*
X118831811Y-107620775D01*
X118946542Y-107544114D01*
X119044114Y-107446542D01*
X119120775Y-107331811D01*
X119173580Y-107204328D01*
X119200500Y-107068993D01*
X119200500Y-107048321D01*
X119202968Y-107040723D01*
X119201719Y-107032834D01*
X119212243Y-107012178D01*
X119219407Y-106990130D01*
X119229490Y-106978323D01*
X119330498Y-106877315D01*
X119385013Y-106849540D01*
X119445445Y-106859111D01*
X119488710Y-106902376D01*
X119499500Y-106947321D01*
X119499500Y-109251678D01*
X119480593Y-109309869D01*
X119470504Y-109321682D01*
X118521682Y-110270504D01*
X118467165Y-110298281D01*
X118451678Y-110299500D01*
X118431004Y-110299500D01*
X118295672Y-110326420D01*
X118295670Y-110326420D01*
X118168193Y-110379222D01*
X118168182Y-110379228D01*
X118053458Y-110455885D01*
X117955885Y-110553458D01*
X117879228Y-110668182D01*
X117879222Y-110668193D01*
X117826420Y-110795670D01*
X117826420Y-110795672D01*
X117799500Y-110931004D01*
X117799500Y-111068995D01*
X117826420Y-111204327D01*
X117826420Y-111204329D01*
X117879222Y-111331806D01*
X117879228Y-111331817D01*
X117955885Y-111446541D01*
X118053458Y-111544114D01*
X118168182Y-111620771D01*
X118168193Y-111620777D01*
X118215283Y-111640282D01*
X118295672Y-111673580D01*
X118431007Y-111700500D01*
X118431008Y-111700500D01*
X118568992Y-111700500D01*
X118568993Y-111700500D01*
X118704328Y-111673580D01*
X118831811Y-111620775D01*
X118946542Y-111544114D01*
X119044114Y-111446542D01*
X119120775Y-111331811D01*
X119173580Y-111204328D01*
X119200500Y-111068993D01*
X119200500Y-111048321D01*
X119219407Y-110990130D01*
X119229490Y-110978323D01*
X120330498Y-109877315D01*
X120385013Y-109849540D01*
X120445445Y-109859111D01*
X120488710Y-109902376D01*
X120499500Y-109947321D01*
X120499500Y-112251678D01*
X120480593Y-112309869D01*
X120470504Y-112321682D01*
X118521682Y-114270504D01*
X118467165Y-114298281D01*
X118451678Y-114299500D01*
X118431004Y-114299500D01*
X118295672Y-114326420D01*
X118295670Y-114326420D01*
X118168193Y-114379222D01*
X118168182Y-114379228D01*
X118053458Y-114455885D01*
X117955885Y-114553458D01*
X117879228Y-114668182D01*
X117879222Y-114668193D01*
X117826420Y-114795670D01*
X117826420Y-114795672D01*
X117799500Y-114931004D01*
X117799500Y-115068995D01*
X117826420Y-115204327D01*
X117826420Y-115204329D01*
X117879222Y-115331806D01*
X117879228Y-115331817D01*
X117955885Y-115446541D01*
X118053458Y-115544114D01*
X118168182Y-115620771D01*
X118168193Y-115620777D01*
X118188425Y-115629157D01*
X118295672Y-115673580D01*
X118431007Y-115700500D01*
X118431008Y-115700500D01*
X118568992Y-115700500D01*
X118568993Y-115700500D01*
X118704328Y-115673580D01*
X118831811Y-115620775D01*
X118946542Y-115544114D01*
X119044114Y-115446542D01*
X119120775Y-115331811D01*
X119173580Y-115204328D01*
X119200500Y-115068993D01*
X119200500Y-115048321D01*
X119219407Y-114990130D01*
X119229490Y-114978323D01*
X121400500Y-112807314D01*
X121466392Y-112693186D01*
X121500500Y-112565892D01*
X121500500Y-112434107D01*
X121500500Y-98155822D01*
X121519407Y-98097631D01*
X121529496Y-98085818D01*
X122178318Y-97436996D01*
X122232835Y-97409219D01*
X122248322Y-97408000D01*
X129411256Y-97408000D01*
X129469447Y-97426907D01*
X129505411Y-97476407D01*
X129505411Y-97537593D01*
X129481260Y-97577004D01*
X127631286Y-99426978D01*
X127631284Y-99426980D01*
X127631283Y-99426979D01*
X127519479Y-99538784D01*
X127469359Y-99625595D01*
X127440425Y-99675709D01*
X127440423Y-99675713D01*
X127440423Y-99675715D01*
X127399499Y-99828443D01*
X127399499Y-99828445D01*
X127399499Y-99994531D01*
X127399500Y-99994544D01*
X127399500Y-110384294D01*
X127380593Y-110442485D01*
X127345445Y-110472504D01*
X127290875Y-110500308D01*
X127118580Y-110625488D01*
X126967988Y-110776080D01*
X126842808Y-110948375D01*
X126746124Y-111138129D01*
X126680314Y-111340674D01*
X126647000Y-111551013D01*
X126647000Y-111763986D01*
X126680314Y-111974325D01*
X126746124Y-112176870D01*
X126784240Y-112251678D01*
X126842810Y-112366627D01*
X126967989Y-112538921D01*
X127118579Y-112689511D01*
X127290873Y-112814690D01*
X127480628Y-112911375D01*
X127683172Y-112977185D01*
X127767310Y-112990511D01*
X127893514Y-113010500D01*
X127893517Y-113010500D01*
X128106486Y-113010500D01*
X128211655Y-112993842D01*
X128316828Y-112977185D01*
X128519372Y-112911375D01*
X128709127Y-112814690D01*
X128881421Y-112689511D01*
X129032011Y-112538921D01*
X129157190Y-112366627D01*
X129253875Y-112176872D01*
X129319685Y-111974328D01*
X129353000Y-111763983D01*
X129353000Y-111551017D01*
X129353000Y-111551013D01*
X129319685Y-111340674D01*
X129319685Y-111340672D01*
X129253875Y-111138128D01*
X129157190Y-110948373D01*
X129032011Y-110776079D01*
X128881421Y-110625489D01*
X128709127Y-110500310D01*
X128709126Y-110500309D01*
X128709124Y-110500308D01*
X128654555Y-110472504D01*
X128611290Y-110429239D01*
X128600500Y-110384294D01*
X128600500Y-100197243D01*
X128619407Y-100139052D01*
X128629496Y-100127239D01*
X130219739Y-98536996D01*
X130274256Y-98509219D01*
X130289743Y-98508000D01*
X135914864Y-98508000D01*
X135914880Y-98508001D01*
X135920943Y-98508001D01*
X136079055Y-98508001D01*
X136079057Y-98508001D01*
X136231785Y-98467077D01*
X136312486Y-98420484D01*
X136368716Y-98388020D01*
X136480520Y-98276216D01*
X136480521Y-98276213D01*
X140219739Y-94536996D01*
X140226856Y-94533369D01*
X140231552Y-94526907D01*
X140253600Y-94519743D01*
X140274256Y-94509219D01*
X140289743Y-94508000D01*
X140414864Y-94508000D01*
X140414880Y-94508001D01*
X140420943Y-94508001D01*
X140579055Y-94508001D01*
X140579057Y-94508001D01*
X140731785Y-94467077D01*
X140812486Y-94420484D01*
X140868716Y-94388020D01*
X140980520Y-94276216D01*
X140980521Y-94276213D01*
X142868713Y-92388021D01*
X142868716Y-92388020D01*
X142918232Y-92338504D01*
X143299500Y-92338504D01*
X143299500Y-92338507D01*
X143299500Y-92476493D01*
X143324204Y-92600690D01*
X143326420Y-92611827D01*
X143326420Y-92611829D01*
X143379222Y-92739306D01*
X143379228Y-92739317D01*
X143455885Y-92854041D01*
X143553458Y-92951614D01*
X143668182Y-93028271D01*
X143668193Y-93028277D01*
X143715283Y-93047782D01*
X143795672Y-93081080D01*
X143931007Y-93108000D01*
X143931008Y-93108000D01*
X144068992Y-93108000D01*
X144068993Y-93108000D01*
X144204328Y-93081080D01*
X144331811Y-93028275D01*
X144446542Y-92951614D01*
X144461160Y-92936996D01*
X144515677Y-92909219D01*
X144531164Y-92908000D01*
X144751678Y-92908000D01*
X144809869Y-92926907D01*
X144821682Y-92936996D01*
X145770504Y-93885818D01*
X145798281Y-93940335D01*
X145799500Y-93955822D01*
X145799500Y-93976495D01*
X145826420Y-94111827D01*
X145826420Y-94111829D01*
X145879222Y-94239306D01*
X145879228Y-94239317D01*
X145955885Y-94354041D01*
X146053458Y-94451614D01*
X146168182Y-94528271D01*
X146168193Y-94528277D01*
X146215283Y-94547782D01*
X146295672Y-94581080D01*
X146431007Y-94608000D01*
X146431008Y-94608000D01*
X146568992Y-94608000D01*
X146568993Y-94608000D01*
X146704328Y-94581080D01*
X146831811Y-94528275D01*
X146946542Y-94451614D01*
X147044114Y-94354042D01*
X147120775Y-94239311D01*
X147173580Y-94111828D01*
X147200500Y-93976493D01*
X147200500Y-93838507D01*
X147173580Y-93703172D01*
X147120775Y-93575689D01*
X147120774Y-93575687D01*
X147120771Y-93575682D01*
X147044114Y-93460958D01*
X146946541Y-93363385D01*
X146831817Y-93286728D01*
X146831806Y-93286722D01*
X146704328Y-93233920D01*
X146568995Y-93207000D01*
X146568993Y-93207000D01*
X146548322Y-93207000D01*
X146490131Y-93188093D01*
X146478318Y-93178004D01*
X145901000Y-92600686D01*
X145307314Y-92007000D01*
X145307311Y-92006998D01*
X145307310Y-92006997D01*
X145307309Y-92006996D01*
X145193189Y-91941109D01*
X145193191Y-91941109D01*
X145126266Y-91923177D01*
X145065892Y-91907000D01*
X145065890Y-91907000D01*
X144531164Y-91907000D01*
X144472973Y-91888093D01*
X144461160Y-91878004D01*
X144446541Y-91863385D01*
X144331817Y-91786728D01*
X144331806Y-91786722D01*
X144204328Y-91733920D01*
X144068995Y-91707000D01*
X144068993Y-91707000D01*
X143931007Y-91707000D01*
X143931004Y-91707000D01*
X143795672Y-91733920D01*
X143795670Y-91733920D01*
X143668193Y-91786722D01*
X143668182Y-91786728D01*
X143553458Y-91863385D01*
X143455885Y-91960958D01*
X143379228Y-92075682D01*
X143379222Y-92075693D01*
X143326420Y-92203170D01*
X143326420Y-92203172D01*
X143299500Y-92338504D01*
X142918232Y-92338504D01*
X142980520Y-92276216D01*
X143030639Y-92189404D01*
X143059577Y-92139285D01*
X143100500Y-91986557D01*
X143100500Y-91828443D01*
X143100500Y-88828443D01*
X143059577Y-88675716D01*
X142980520Y-88538784D01*
X142868716Y-88426980D01*
X142868713Y-88426978D01*
X139480521Y-85038786D01*
X139480520Y-85038784D01*
X139368716Y-84926980D01*
X139368713Y-84926978D01*
X139276765Y-84873892D01*
X139276762Y-84873891D01*
X139231788Y-84847924D01*
X139231785Y-84847923D01*
X139079057Y-84806999D01*
X138920943Y-84806999D01*
X138914880Y-84806999D01*
X138914864Y-84807000D01*
X134585137Y-84807000D01*
X134585121Y-84806999D01*
X134579058Y-84806999D01*
X134420943Y-84806999D01*
X134420940Y-84806999D01*
X134268219Y-84847921D01*
X134268218Y-84847921D01*
X134164241Y-84907952D01*
X134131288Y-84926978D01*
X134131281Y-84926982D01*
X133852697Y-85205565D01*
X133802014Y-85232658D01*
X133795672Y-85233919D01*
X133795669Y-85233920D01*
X133668193Y-85286722D01*
X133668182Y-85286728D01*
X133553458Y-85363385D01*
X133455885Y-85460958D01*
X133379228Y-85575682D01*
X133379222Y-85575693D01*
X133326420Y-85703170D01*
X133326420Y-85703172D01*
X133299500Y-85838504D01*
X133299500Y-85838507D01*
X133299500Y-85976493D01*
X133326418Y-86111820D01*
X133326420Y-86111827D01*
X133326420Y-86111829D01*
X133379222Y-86239306D01*
X133379228Y-86239317D01*
X133455885Y-86354041D01*
X133553458Y-86451614D01*
X133668182Y-86528271D01*
X133668193Y-86528277D01*
X133715283Y-86547782D01*
X133795672Y-86581080D01*
X133931007Y-86608000D01*
X133931008Y-86608000D01*
X134068992Y-86608000D01*
X134068993Y-86608000D01*
X134204328Y-86581080D01*
X134331811Y-86528275D01*
X134446542Y-86451614D01*
X134544114Y-86354042D01*
X134620775Y-86239311D01*
X134673580Y-86111828D01*
X134674840Y-86105493D01*
X134701935Y-86054799D01*
X134719741Y-86036993D01*
X134774259Y-86009218D01*
X134789743Y-86008000D01*
X138259099Y-86008000D01*
X138317290Y-86026907D01*
X138353254Y-86076407D01*
X138353254Y-86137593D01*
X138350563Y-86144885D01*
X138326420Y-86203170D01*
X138326420Y-86203172D01*
X138299500Y-86338504D01*
X138299500Y-86476495D01*
X138317446Y-86566716D01*
X138325658Y-86607999D01*
X138326420Y-86611827D01*
X138326420Y-86611829D01*
X138379222Y-86739306D01*
X138379228Y-86739317D01*
X138455885Y-86854041D01*
X138553458Y-86951614D01*
X138668182Y-87028271D01*
X138668193Y-87028277D01*
X138715283Y-87047782D01*
X138795672Y-87081080D01*
X138931007Y-87108000D01*
X138951678Y-87108000D01*
X139009869Y-87126907D01*
X139021682Y-87136996D01*
X139470504Y-87585818D01*
X139498281Y-87640335D01*
X139499500Y-87655822D01*
X139499500Y-91159178D01*
X139480593Y-91217369D01*
X139470503Y-91229182D01*
X139403285Y-91296399D01*
X139348768Y-91324176D01*
X139288336Y-91314604D01*
X139245072Y-91271339D01*
X139235501Y-91210907D01*
X139241816Y-91188515D01*
X139273581Y-91111828D01*
X139300501Y-90976493D01*
X139300501Y-90838507D01*
X139273581Y-90703172D01*
X139220776Y-90575689D01*
X139220775Y-90575687D01*
X139220772Y-90575682D01*
X139144115Y-90460958D01*
X139046542Y-90363385D01*
X138931818Y-90286728D01*
X138931807Y-90286722D01*
X138804329Y-90233920D01*
X138668996Y-90207000D01*
X138668994Y-90207000D01*
X138531008Y-90207000D01*
X138531005Y-90207000D01*
X138395673Y-90233920D01*
X138395671Y-90233920D01*
X138268194Y-90286722D01*
X138268183Y-90286728D01*
X138153459Y-90363385D01*
X138153455Y-90363389D01*
X138138841Y-90378004D01*
X138084324Y-90405781D01*
X138068837Y-90407000D01*
X137065892Y-90407000D01*
X136934107Y-90407000D01*
X136856200Y-90427874D01*
X136806809Y-90441109D01*
X136692690Y-90506996D01*
X133821682Y-93378004D01*
X133767165Y-93405781D01*
X133751678Y-93407000D01*
X133447321Y-93407000D01*
X133389130Y-93388093D01*
X133353166Y-93338593D01*
X133353166Y-93277407D01*
X133377315Y-93237998D01*
X133900500Y-92714814D01*
X133966392Y-92600686D01*
X134000500Y-92473392D01*
X134000500Y-92341607D01*
X134000500Y-91938664D01*
X134019407Y-91880473D01*
X134029496Y-91868660D01*
X134034771Y-91863385D01*
X134044114Y-91854042D01*
X134120775Y-91739311D01*
X134173580Y-91611828D01*
X134200500Y-91476493D01*
X134200500Y-91338507D01*
X134173580Y-91203172D01*
X134135744Y-91111828D01*
X134120777Y-91075693D01*
X134120771Y-91075682D01*
X134044114Y-90960958D01*
X133946541Y-90863385D01*
X133831817Y-90786728D01*
X133831806Y-90786722D01*
X133704328Y-90733920D01*
X133568995Y-90707000D01*
X133568993Y-90707000D01*
X133431007Y-90707000D01*
X133431004Y-90707000D01*
X133295672Y-90733920D01*
X133295670Y-90733920D01*
X133168193Y-90786722D01*
X133168182Y-90786728D01*
X133053458Y-90863385D01*
X132955885Y-90960958D01*
X132879228Y-91075682D01*
X132879222Y-91075693D01*
X132826420Y-91203170D01*
X132826420Y-91203172D01*
X132799500Y-91338504D01*
X132799500Y-91476495D01*
X132826420Y-91611827D01*
X132826420Y-91611829D01*
X132879222Y-91739306D01*
X132879228Y-91739317D01*
X132955885Y-91854041D01*
X132970504Y-91868660D01*
X132998281Y-91923177D01*
X132999500Y-91938664D01*
X132999500Y-92159178D01*
X132980593Y-92217369D01*
X132970504Y-92229182D01*
X132821682Y-92378004D01*
X132767165Y-92405781D01*
X132751678Y-92407000D01*
X128237794Y-92407000D01*
X128179603Y-92388093D01*
X128143639Y-92338593D01*
X128143639Y-92277407D01*
X128146324Y-92270128D01*
X128173580Y-92204328D01*
X128200500Y-92068993D01*
X128200500Y-91931007D01*
X128173580Y-91795672D01*
X128120775Y-91668189D01*
X128120774Y-91668187D01*
X128120771Y-91668182D01*
X128044114Y-91553458D01*
X127946541Y-91455885D01*
X127831817Y-91379228D01*
X127831806Y-91379222D01*
X127704328Y-91326420D01*
X127568995Y-91299500D01*
X127568993Y-91299500D01*
X127431007Y-91299500D01*
X127431004Y-91299500D01*
X127295672Y-91326420D01*
X127295670Y-91326420D01*
X127168193Y-91379222D01*
X127168182Y-91379228D01*
X127053458Y-91455885D01*
X127053454Y-91455889D01*
X127038840Y-91470504D01*
X126984323Y-91498281D01*
X126968836Y-91499500D01*
X125531164Y-91499500D01*
X125472973Y-91480593D01*
X125461160Y-91470504D01*
X125446541Y-91455885D01*
X125331817Y-91379228D01*
X125331806Y-91379222D01*
X125204328Y-91326420D01*
X125068995Y-91299500D01*
X125068993Y-91299500D01*
X124931007Y-91299500D01*
X124931004Y-91299500D01*
X124795672Y-91326420D01*
X124795670Y-91326420D01*
X124668193Y-91379222D01*
X124668182Y-91379228D01*
X124553458Y-91455885D01*
X124455885Y-91553458D01*
X124379228Y-91668182D01*
X124379222Y-91668193D01*
X124326420Y-91795670D01*
X124326420Y-91795672D01*
X124299500Y-91931004D01*
X124299500Y-92068995D01*
X124326419Y-92204326D01*
X124326420Y-92204328D01*
X124353670Y-92270115D01*
X124358471Y-92331111D01*
X124326501Y-92383280D01*
X124269974Y-92406695D01*
X124262206Y-92407000D01*
X116065893Y-92407000D01*
X115934108Y-92407000D01*
X115856200Y-92427875D01*
X115806809Y-92441109D01*
X115692690Y-92506996D01*
X113192686Y-95007000D01*
X113192685Y-95006999D01*
X113099500Y-95100185D01*
X113099496Y-95100190D01*
X113033609Y-95214309D01*
X112999500Y-95341609D01*
X112999500Y-104159178D01*
X112980593Y-104217369D01*
X112970504Y-104229182D01*
X112621682Y-104578004D01*
X112567165Y-104605781D01*
X112551678Y-104607000D01*
X112531004Y-104607000D01*
X112395672Y-104633920D01*
X112395670Y-104633920D01*
X112268193Y-104686722D01*
X112268182Y-104686728D01*
X112153458Y-104763385D01*
X112055885Y-104860958D01*
X111979228Y-104975682D01*
X111979222Y-104975693D01*
X111926420Y-105103170D01*
X111926420Y-105103172D01*
X111899500Y-105238504D01*
X107500500Y-105238504D01*
X107500500Y-92748322D01*
X107519407Y-92690131D01*
X107529496Y-92678318D01*
X107978318Y-92229496D01*
X108032835Y-92201719D01*
X108048322Y-92200500D01*
X108068992Y-92200500D01*
X108068993Y-92200500D01*
X108204328Y-92173580D01*
X108331811Y-92120775D01*
X108446542Y-92044114D01*
X108544114Y-91946542D01*
X108620775Y-91831811D01*
X108673580Y-91704328D01*
X108700500Y-91568993D01*
X108700500Y-91431007D01*
X108673580Y-91295672D01*
X108647422Y-91232521D01*
X108620777Y-91168193D01*
X108620771Y-91168182D01*
X108544114Y-91053458D01*
X108446541Y-90955885D01*
X108331817Y-90879228D01*
X108331806Y-90879222D01*
X108204328Y-90826420D01*
X108068995Y-90799500D01*
X108068993Y-90799500D01*
X107931007Y-90799500D01*
X107931004Y-90799500D01*
X107795672Y-90826420D01*
X107795670Y-90826420D01*
X107668193Y-90879222D01*
X107668182Y-90879228D01*
X107553458Y-90955885D01*
X107455885Y-91053458D01*
X107379228Y-91168182D01*
X107379222Y-91168193D01*
X107326420Y-91295670D01*
X107326420Y-91295672D01*
X107299500Y-91431004D01*
X107299500Y-91451678D01*
X107280593Y-91509869D01*
X107270504Y-91521682D01*
X106969504Y-91822682D01*
X106914987Y-91850459D01*
X106854555Y-91840888D01*
X106811290Y-91797623D01*
X106800500Y-91752678D01*
X106800500Y-88838504D01*
X129299500Y-88838504D01*
X129299500Y-88976495D01*
X129326420Y-89111827D01*
X129326420Y-89111829D01*
X129379222Y-89239306D01*
X129379228Y-89239317D01*
X129455885Y-89354041D01*
X129553458Y-89451614D01*
X129668182Y-89528271D01*
X129668193Y-89528277D01*
X129715283Y-89547782D01*
X129795672Y-89581080D01*
X129931007Y-89608000D01*
X129931008Y-89608000D01*
X130068992Y-89608000D01*
X130068993Y-89608000D01*
X130204328Y-89581080D01*
X130331811Y-89528275D01*
X130446542Y-89451614D01*
X130544114Y-89354042D01*
X130620775Y-89239311D01*
X130673580Y-89111828D01*
X130700500Y-88976493D01*
X130700500Y-88838507D01*
X130673580Y-88703172D01*
X130630638Y-88599500D01*
X130620777Y-88575693D01*
X130620771Y-88575682D01*
X130544114Y-88460958D01*
X130529496Y-88446340D01*
X130501719Y-88391823D01*
X130500500Y-88376336D01*
X130500500Y-88155822D01*
X130519407Y-88097631D01*
X130529496Y-88085818D01*
X134178318Y-84436996D01*
X134232835Y-84409219D01*
X134248322Y-84408000D01*
X134934108Y-84408000D01*
X139251678Y-84408000D01*
X139309869Y-84426907D01*
X139321682Y-84436996D01*
X147470504Y-92585818D01*
X147498281Y-92640335D01*
X147499500Y-92655822D01*
X147499500Y-116876336D01*
X147480593Y-116934527D01*
X147470504Y-116946340D01*
X147455889Y-116960954D01*
X147455885Y-116960958D01*
X147379228Y-117075682D01*
X147379222Y-117075693D01*
X147326420Y-117203170D01*
X147326420Y-117203172D01*
X147299500Y-117338504D01*
X147299500Y-117476495D01*
X147317446Y-117566716D01*
X147325658Y-117607999D01*
X147326420Y-117611827D01*
X147326420Y-117611829D01*
X147379222Y-117739306D01*
X147379228Y-117739317D01*
X147455885Y-117854041D01*
X147553458Y-117951614D01*
X147668182Y-118028271D01*
X147668193Y-118028277D01*
X147704178Y-118043182D01*
X147795672Y-118081080D01*
X147931007Y-118108000D01*
X147931008Y-118108000D01*
X148068992Y-118108000D01*
X148068993Y-118108000D01*
X148204328Y-118081080D01*
X148331811Y-118028275D01*
X148446542Y-117951614D01*
X148544114Y-117854042D01*
X148620775Y-117739311D01*
X148673580Y-117611828D01*
X148700500Y-117476493D01*
X148700500Y-117338507D01*
X148673580Y-117203172D01*
X148620775Y-117075689D01*
X148620774Y-117075687D01*
X148620771Y-117075682D01*
X148544114Y-116960958D01*
X148529496Y-116946340D01*
X148501719Y-116891823D01*
X148500500Y-116876336D01*
X148500500Y-92341607D01*
X148499536Y-92338010D01*
X148499535Y-92338008D01*
X148499513Y-92337925D01*
X148466392Y-92214314D01*
X148405011Y-92108000D01*
X148400500Y-92100186D01*
X148307314Y-92007000D01*
X140307314Y-84007000D01*
X139807314Y-83507000D01*
X139807311Y-83506998D01*
X139807310Y-83506997D01*
X139807309Y-83506996D01*
X139693189Y-83441109D01*
X139693191Y-83441109D01*
X139643799Y-83427875D01*
X139565892Y-83407000D01*
X135065892Y-83407000D01*
X134065892Y-83407000D01*
X133934107Y-83407000D01*
X133856200Y-83427874D01*
X133806809Y-83441109D01*
X133692690Y-83506996D01*
X133692684Y-83507000D01*
X133692685Y-83507001D01*
X130192686Y-87007000D01*
X129692686Y-87507000D01*
X129692685Y-87506999D01*
X129599500Y-87600185D01*
X129599496Y-87600190D01*
X129533609Y-87714309D01*
X129499500Y-87841609D01*
X129499500Y-88376336D01*
X129480593Y-88434527D01*
X129470504Y-88446340D01*
X129455889Y-88460954D01*
X129455885Y-88460958D01*
X129379228Y-88575682D01*
X129379222Y-88575693D01*
X129326420Y-88703170D01*
X129326420Y-88703172D01*
X129299500Y-88838504D01*
X106800500Y-88838504D01*
X106800500Y-84818806D01*
X110083098Y-84818806D01*
X110083098Y-84996193D01*
X110117704Y-85170165D01*
X110117704Y-85170167D01*
X110185583Y-85334044D01*
X110185583Y-85334045D01*
X110284133Y-85481534D01*
X110284134Y-85481535D01*
X110409563Y-85606964D01*
X110557051Y-85705513D01*
X110720932Y-85773394D01*
X110894907Y-85808000D01*
X110894908Y-85808000D01*
X123548691Y-85808000D01*
X123548692Y-85808000D01*
X123722666Y-85773395D01*
X123804606Y-85739453D01*
X123886547Y-85705513D01*
X123980114Y-85642993D01*
X124034036Y-85606964D01*
X129209996Y-80431004D01*
X135299500Y-80431004D01*
X135299500Y-80568995D01*
X135326420Y-80704327D01*
X135326420Y-80704329D01*
X135379222Y-80831806D01*
X135379228Y-80831817D01*
X135455885Y-80946541D01*
X135553458Y-81044114D01*
X135668182Y-81120771D01*
X135668193Y-81120777D01*
X135715283Y-81140282D01*
X135795672Y-81173580D01*
X135931007Y-81200500D01*
X135931008Y-81200500D01*
X136068992Y-81200500D01*
X136068993Y-81200500D01*
X136204328Y-81173580D01*
X136331811Y-81120775D01*
X136446542Y-81044114D01*
X136461160Y-81029496D01*
X136515677Y-81001719D01*
X136531164Y-81000500D01*
X137751678Y-81000500D01*
X137809869Y-81019407D01*
X137821682Y-81029496D01*
X144599500Y-87807314D01*
X144599499Y-87807314D01*
X144692685Y-87900499D01*
X144692690Y-87900503D01*
X144806810Y-87966390D01*
X144806808Y-87966390D01*
X144806812Y-87966391D01*
X144806814Y-87966392D01*
X144934108Y-88000500D01*
X148468836Y-88000500D01*
X148527027Y-88019407D01*
X148538840Y-88029496D01*
X148553458Y-88044114D01*
X148668182Y-88120771D01*
X148668193Y-88120777D01*
X148715283Y-88140282D01*
X148795672Y-88173580D01*
X148931007Y-88200500D01*
X148951678Y-88200500D01*
X149009869Y-88219407D01*
X149021682Y-88229496D01*
X149970504Y-89178318D01*
X149998281Y-89232835D01*
X149999500Y-89248322D01*
X149999500Y-101468836D01*
X149980593Y-101527027D01*
X149970504Y-101538840D01*
X149955889Y-101553454D01*
X149955885Y-101553458D01*
X149879228Y-101668182D01*
X149879222Y-101668193D01*
X149826420Y-101795670D01*
X149826420Y-101795672D01*
X149799500Y-101931004D01*
X149799500Y-102068995D01*
X149826420Y-102204327D01*
X149826420Y-102204329D01*
X149879222Y-102331806D01*
X149879228Y-102331817D01*
X149955885Y-102446541D01*
X149970504Y-102461160D01*
X149998281Y-102515677D01*
X149999500Y-102531164D01*
X149999500Y-120968836D01*
X149980593Y-121027027D01*
X149970504Y-121038840D01*
X149955889Y-121053454D01*
X149955885Y-121053458D01*
X149879228Y-121168182D01*
X149879222Y-121168193D01*
X149826420Y-121295670D01*
X149826420Y-121295672D01*
X149799500Y-121431004D01*
X149799500Y-121568995D01*
X149826420Y-121704327D01*
X149826420Y-121704329D01*
X149879222Y-121831806D01*
X149879228Y-121831817D01*
X149955885Y-121946541D01*
X150053458Y-122044114D01*
X150168182Y-122120771D01*
X150168193Y-122120777D01*
X150215283Y-122140282D01*
X150295672Y-122173580D01*
X150431007Y-122200500D01*
X150431008Y-122200500D01*
X150568992Y-122200500D01*
X150568993Y-122200500D01*
X150704328Y-122173580D01*
X150831811Y-122120775D01*
X150946542Y-122044114D01*
X151044114Y-121946542D01*
X151120775Y-121831811D01*
X151173580Y-121704328D01*
X151200500Y-121568993D01*
X151200500Y-121431007D01*
X151173580Y-121295672D01*
X151120775Y-121168189D01*
X151120774Y-121168187D01*
X151120771Y-121168182D01*
X151044114Y-121053458D01*
X151029496Y-121038840D01*
X151001719Y-120984323D01*
X151000500Y-120968836D01*
X151000500Y-102531164D01*
X151019407Y-102472973D01*
X151029496Y-102461160D01*
X151044114Y-102446542D01*
X151120775Y-102331811D01*
X151173580Y-102204328D01*
X151200500Y-102068993D01*
X151200500Y-101931007D01*
X151173580Y-101795672D01*
X151120775Y-101668189D01*
X151120774Y-101668187D01*
X151120771Y-101668182D01*
X151044114Y-101553458D01*
X151029496Y-101538840D01*
X151001719Y-101484323D01*
X151000500Y-101468836D01*
X151000500Y-88934108D01*
X150993504Y-88908000D01*
X150966392Y-88806814D01*
X150900500Y-88692686D01*
X150883530Y-88675716D01*
X150807314Y-88599499D01*
X150807314Y-88599500D01*
X149729496Y-87521682D01*
X149701719Y-87467165D01*
X149700500Y-87451678D01*
X149700500Y-87431008D01*
X149700499Y-87431004D01*
X149673580Y-87295672D01*
X149620775Y-87168189D01*
X149620774Y-87168187D01*
X149620771Y-87168182D01*
X149544114Y-87053458D01*
X149446541Y-86955885D01*
X149331817Y-86879228D01*
X149331806Y-86879222D01*
X149204328Y-86826420D01*
X149068995Y-86799500D01*
X149068993Y-86799500D01*
X148931007Y-86799500D01*
X148931004Y-86799500D01*
X148795672Y-86826420D01*
X148795670Y-86826420D01*
X148668193Y-86879222D01*
X148668182Y-86879228D01*
X148553458Y-86955885D01*
X148553454Y-86955889D01*
X148538840Y-86970504D01*
X148484323Y-86998281D01*
X148468836Y-86999500D01*
X145248322Y-86999500D01*
X145190131Y-86980593D01*
X145178318Y-86970504D01*
X141783496Y-83575682D01*
X138307314Y-80099500D01*
X138307311Y-80099498D01*
X138307310Y-80099497D01*
X138307309Y-80099496D01*
X138193189Y-80033609D01*
X138193191Y-80033609D01*
X138143799Y-80020375D01*
X138065892Y-79999500D01*
X138065890Y-79999500D01*
X136531164Y-79999500D01*
X136472973Y-79980593D01*
X136461160Y-79970504D01*
X136446541Y-79955885D01*
X136331817Y-79879228D01*
X136331806Y-79879222D01*
X136204328Y-79826420D01*
X136068995Y-79799500D01*
X136068993Y-79799500D01*
X135931007Y-79799500D01*
X135931004Y-79799500D01*
X135795672Y-79826420D01*
X135795670Y-79826420D01*
X135668193Y-79879222D01*
X135668182Y-79879228D01*
X135553458Y-79955885D01*
X135455885Y-80053458D01*
X135379228Y-80168182D01*
X135379222Y-80168193D01*
X135326420Y-80295670D01*
X135326420Y-80295672D01*
X135299500Y-80431004D01*
X129209996Y-80431004D01*
X133337664Y-76303336D01*
X133378039Y-76242910D01*
X133436213Y-76155847D01*
X133474766Y-76062772D01*
X133504095Y-75991966D01*
X133538700Y-75817992D01*
X133538700Y-75640608D01*
X133538700Y-75194399D01*
X133557607Y-75136208D01*
X133607107Y-75100244D01*
X133637700Y-75095399D01*
X133641075Y-75095399D01*
X133641081Y-75095400D01*
X135278918Y-75095399D01*
X135278921Y-75095399D01*
X135278922Y-75095398D01*
X135325811Y-75087972D01*
X135372699Y-75080547D01*
X135372699Y-75080546D01*
X135372704Y-75080546D01*
X135485742Y-75022950D01*
X135575450Y-74933242D01*
X135633046Y-74820204D01*
X135647900Y-74726419D01*
X135647899Y-74501957D01*
X135666806Y-74443770D01*
X135716306Y-74407806D01*
X135777491Y-74407805D01*
X135826991Y-74443769D01*
X135835109Y-74457015D01*
X135898916Y-74582244D01*
X135898918Y-74582248D01*
X135929544Y-74624400D01*
X136489765Y-74064178D01*
X136502950Y-74113385D01*
X136573174Y-74235015D01*
X136672485Y-74334326D01*
X136794115Y-74404550D01*
X136843318Y-74417733D01*
X136283098Y-74977953D01*
X136283098Y-74977954D01*
X136325249Y-75008579D01*
X136325255Y-75008583D01*
X136505813Y-75100581D01*
X136505816Y-75100583D01*
X136698527Y-75163199D01*
X136698531Y-75163200D01*
X136898676Y-75194900D01*
X137101324Y-75194900D01*
X137301468Y-75163200D01*
X137301472Y-75163199D01*
X137494183Y-75100583D01*
X137494186Y-75100581D01*
X137674738Y-75008586D01*
X137674746Y-75008581D01*
X137716900Y-74977954D01*
X137156680Y-74417734D01*
X137205885Y-74404550D01*
X137327515Y-74334326D01*
X137426826Y-74235015D01*
X137497050Y-74113385D01*
X137510234Y-74064180D01*
X138070454Y-74624400D01*
X138101081Y-74582246D01*
X138101086Y-74582238D01*
X138193079Y-74401690D01*
X138228155Y-74293740D01*
X138264119Y-74244240D01*
X138322310Y-74225333D01*
X138380501Y-74244240D01*
X138416464Y-74293740D01*
X138439126Y-74363488D01*
X138439128Y-74363491D01*
X138480031Y-74443769D01*
X138524017Y-74530095D01*
X138633921Y-74681365D01*
X138766135Y-74813579D01*
X138917405Y-74923483D01*
X139084005Y-75008370D01*
X139261833Y-75066150D01*
X139261834Y-75066150D01*
X139261837Y-75066151D01*
X139446507Y-75095400D01*
X139446510Y-75095400D01*
X139633493Y-75095400D01*
X139818162Y-75066151D01*
X139818163Y-75066150D01*
X139818167Y-75066150D01*
X139995995Y-75008370D01*
X140162595Y-74923483D01*
X140313865Y-74813579D01*
X140446079Y-74681365D01*
X140555983Y-74530095D01*
X140640870Y-74363495D01*
X140698650Y-74185667D01*
X140698651Y-74185662D01*
X140712219Y-74099998D01*
X140739996Y-74045482D01*
X140794513Y-74017704D01*
X140854945Y-74027275D01*
X140898210Y-74070540D01*
X140907781Y-74099998D01*
X140921348Y-74185662D01*
X140979130Y-74363495D01*
X141020031Y-74443769D01*
X141064017Y-74530095D01*
X141173921Y-74681365D01*
X141306135Y-74813579D01*
X141457405Y-74923483D01*
X141525444Y-74958150D01*
X141568709Y-75001414D01*
X141579500Y-75046360D01*
X141579500Y-75421608D01*
X141579500Y-75553392D01*
X141594373Y-75608899D01*
X141613609Y-75680690D01*
X141679496Y-75794809D01*
X141679498Y-75794811D01*
X141679500Y-75794814D01*
X146722183Y-80837497D01*
X146749959Y-80892012D01*
X146740388Y-80952444D01*
X146722182Y-80977503D01*
X144521682Y-83178004D01*
X144467165Y-83205781D01*
X144451678Y-83207000D01*
X144431004Y-83207000D01*
X144295672Y-83233920D01*
X144295670Y-83233920D01*
X144168193Y-83286722D01*
X144168182Y-83286728D01*
X144053458Y-83363385D01*
X143955885Y-83460958D01*
X143879228Y-83575682D01*
X143879222Y-83575693D01*
X143826420Y-83703170D01*
X143826420Y-83703172D01*
X143799500Y-83838504D01*
X143799500Y-83976495D01*
X143805326Y-84005781D01*
X143825954Y-84109487D01*
X143826420Y-84111827D01*
X143826420Y-84111829D01*
X143879222Y-84239306D01*
X143879228Y-84239317D01*
X143955885Y-84354041D01*
X144053458Y-84451614D01*
X144168182Y-84528271D01*
X144168193Y-84528277D01*
X144215283Y-84547782D01*
X144295672Y-84581080D01*
X144431007Y-84608000D01*
X144431008Y-84608000D01*
X144568992Y-84608000D01*
X144568993Y-84608000D01*
X144704328Y-84581080D01*
X144831811Y-84528275D01*
X144946542Y-84451614D01*
X145044114Y-84354042D01*
X145120775Y-84239311D01*
X145173580Y-84111828D01*
X145200500Y-83976493D01*
X145200500Y-83955822D01*
X145219407Y-83897631D01*
X145229496Y-83885818D01*
X147678318Y-81436996D01*
X147732835Y-81409219D01*
X147748322Y-81408000D01*
X152900500Y-81408000D01*
X152958691Y-81426907D01*
X152994655Y-81476407D01*
X152999500Y-81507000D01*
X152999500Y-98376336D01*
X152980593Y-98434527D01*
X152970504Y-98446340D01*
X152955889Y-98460954D01*
X152955885Y-98460958D01*
X152879228Y-98575682D01*
X152879222Y-98575693D01*
X152826420Y-98703170D01*
X152826420Y-98703172D01*
X152799500Y-98838504D01*
X152799500Y-98838507D01*
X152799500Y-98976493D01*
X152826419Y-99111825D01*
X152826420Y-99111827D01*
X152826420Y-99111829D01*
X152879222Y-99239306D01*
X152879228Y-99239317D01*
X152955885Y-99354041D01*
X152970504Y-99368660D01*
X152998281Y-99423177D01*
X152999500Y-99438664D01*
X152999500Y-117376336D01*
X152980593Y-117434527D01*
X152970504Y-117446340D01*
X152955889Y-117460954D01*
X152955885Y-117460958D01*
X152879228Y-117575682D01*
X152879222Y-117575693D01*
X152826420Y-117703170D01*
X152826420Y-117703172D01*
X152799500Y-117838504D01*
X152799500Y-117976495D01*
X152812765Y-118043182D01*
X152825658Y-118107999D01*
X152826420Y-118111827D01*
X152826420Y-118111829D01*
X152879222Y-118239306D01*
X152879228Y-118239317D01*
X152955885Y-118354041D01*
X153053458Y-118451614D01*
X153168182Y-118528271D01*
X153168193Y-118528277D01*
X153182428Y-118534173D01*
X153295672Y-118581080D01*
X153431007Y-118608000D01*
X153431008Y-118608000D01*
X153568992Y-118608000D01*
X153568993Y-118608000D01*
X153704328Y-118581080D01*
X153831811Y-118528275D01*
X153946542Y-118451614D01*
X154044114Y-118354042D01*
X154120775Y-118239311D01*
X154173580Y-118111828D01*
X154200500Y-117976493D01*
X154200500Y-117838507D01*
X154173580Y-117703172D01*
X154120775Y-117575689D01*
X154120774Y-117575687D01*
X154120771Y-117575682D01*
X154044114Y-117460958D01*
X154029496Y-117446340D01*
X154001719Y-117391823D01*
X154000500Y-117376336D01*
X154000500Y-99438664D01*
X154019407Y-99380473D01*
X154029496Y-99368660D01*
X154044114Y-99354042D01*
X154120775Y-99239311D01*
X154173580Y-99111828D01*
X154200500Y-98976493D01*
X154200500Y-98838507D01*
X154173580Y-98703172D01*
X154134158Y-98607999D01*
X154120777Y-98575693D01*
X154120771Y-98575682D01*
X154044114Y-98460958D01*
X154029496Y-98446340D01*
X154001719Y-98391823D01*
X154000500Y-98376336D01*
X154000500Y-81438664D01*
X154019407Y-81380473D01*
X154029496Y-81368660D01*
X154044114Y-81354042D01*
X154120775Y-81239311D01*
X154173580Y-81111828D01*
X154200500Y-80976493D01*
X154200500Y-80838507D01*
X154173580Y-80703172D01*
X154120775Y-80575689D01*
X154120774Y-80575687D01*
X154120771Y-80575682D01*
X154044114Y-80460958D01*
X153946541Y-80363385D01*
X153831817Y-80286728D01*
X153831806Y-80286722D01*
X153704328Y-80233920D01*
X153568995Y-80207000D01*
X153568993Y-80207000D01*
X153431007Y-80207000D01*
X153431004Y-80207000D01*
X153295672Y-80233920D01*
X153295670Y-80233920D01*
X153168193Y-80286722D01*
X153168182Y-80286728D01*
X153053458Y-80363385D01*
X153053454Y-80363389D01*
X153038840Y-80378004D01*
X152984323Y-80405781D01*
X152968836Y-80407000D01*
X147748322Y-80407000D01*
X147690131Y-80388093D01*
X147678318Y-80378004D01*
X142609496Y-75309182D01*
X142605869Y-75302064D01*
X142599407Y-75297369D01*
X142592243Y-75275320D01*
X142581719Y-75254665D01*
X142580500Y-75239178D01*
X142580500Y-75046360D01*
X142599407Y-74988169D01*
X142634555Y-74958150D01*
X142702595Y-74923483D01*
X142853865Y-74813579D01*
X142986079Y-74681365D01*
X143095983Y-74530095D01*
X143180870Y-74363495D01*
X143238650Y-74185667D01*
X143238651Y-74185662D01*
X143252219Y-74099998D01*
X143279996Y-74045482D01*
X143334513Y-74017704D01*
X143394945Y-74027275D01*
X143438210Y-74070540D01*
X143447781Y-74099998D01*
X143461348Y-74185662D01*
X143519130Y-74363495D01*
X143560031Y-74443769D01*
X143604017Y-74530095D01*
X143713921Y-74681365D01*
X143846135Y-74813579D01*
X143997405Y-74923483D01*
X144065444Y-74958150D01*
X144108709Y-75001414D01*
X144119500Y-75046360D01*
X144119500Y-75961608D01*
X144119500Y-76093392D01*
X144136235Y-76155847D01*
X144153609Y-76220690D01*
X144219496Y-76334809D01*
X144219498Y-76334811D01*
X144219500Y-76334814D01*
X147692686Y-79808000D01*
X147692688Y-79808001D01*
X147692690Y-79808003D01*
X147806810Y-79873890D01*
X147806808Y-79873890D01*
X147806812Y-79873891D01*
X147806814Y-79873892D01*
X147934108Y-79908000D01*
X148065893Y-79908000D01*
X148468836Y-79908000D01*
X148527027Y-79926907D01*
X148538840Y-79936996D01*
X148553458Y-79951614D01*
X148668182Y-80028271D01*
X148668193Y-80028277D01*
X148681066Y-80033609D01*
X148795672Y-80081080D01*
X148931007Y-80108000D01*
X148931008Y-80108000D01*
X149068992Y-80108000D01*
X149068993Y-80108000D01*
X149204328Y-80081080D01*
X149331811Y-80028275D01*
X149446542Y-79951614D01*
X149461160Y-79936996D01*
X149515677Y-79909219D01*
X149531164Y-79908000D01*
X153751678Y-79908000D01*
X153809869Y-79926907D01*
X153821682Y-79936996D01*
X154470504Y-80585818D01*
X154498281Y-80640335D01*
X154499500Y-80655822D01*
X154499500Y-97376336D01*
X154480593Y-97434527D01*
X154470504Y-97446340D01*
X154455889Y-97460954D01*
X154455885Y-97460958D01*
X154379230Y-97575680D01*
X154379225Y-97575689D01*
X154326420Y-97703170D01*
X154326420Y-97703172D01*
X154299500Y-97838504D01*
X154299500Y-97976495D01*
X154312780Y-98043254D01*
X154325658Y-98107999D01*
X154326420Y-98111827D01*
X154326420Y-98111829D01*
X154379222Y-98239306D01*
X154379228Y-98239317D01*
X154455885Y-98354041D01*
X154470504Y-98368660D01*
X154498281Y-98423177D01*
X154499500Y-98438664D01*
X154499500Y-116376336D01*
X154480593Y-116434527D01*
X154470504Y-116446340D01*
X154455889Y-116460954D01*
X154455885Y-116460958D01*
X154379228Y-116575682D01*
X154379222Y-116575693D01*
X154326420Y-116703170D01*
X154326420Y-116703172D01*
X154299500Y-116838504D01*
X154299500Y-116976495D01*
X154326420Y-117111827D01*
X154326420Y-117111829D01*
X154379222Y-117239306D01*
X154379228Y-117239317D01*
X154455885Y-117354041D01*
X154553458Y-117451614D01*
X154668182Y-117528271D01*
X154668193Y-117528277D01*
X154715283Y-117547782D01*
X154795672Y-117581080D01*
X154931007Y-117608000D01*
X154931008Y-117608000D01*
X155068992Y-117608000D01*
X155068993Y-117608000D01*
X155204328Y-117581080D01*
X155331811Y-117528275D01*
X155446542Y-117451614D01*
X155544114Y-117354042D01*
X155620775Y-117239311D01*
X155673580Y-117111828D01*
X155700500Y-116976493D01*
X155700500Y-116838507D01*
X155673580Y-116703172D01*
X155620775Y-116575689D01*
X155620774Y-116575687D01*
X155620771Y-116575682D01*
X155544114Y-116460958D01*
X155529496Y-116446340D01*
X155501719Y-116391823D01*
X155500500Y-116376336D01*
X155500500Y-98438664D01*
X155519407Y-98380473D01*
X155529496Y-98368660D01*
X155534771Y-98363385D01*
X155544114Y-98354042D01*
X155620775Y-98239311D01*
X155673580Y-98111828D01*
X155700500Y-97976493D01*
X155700500Y-97838507D01*
X155673580Y-97703172D01*
X155620775Y-97575689D01*
X155620770Y-97575680D01*
X155544114Y-97460958D01*
X155529496Y-97446340D01*
X155501719Y-97391823D01*
X155500500Y-97376336D01*
X155500500Y-80341609D01*
X155491821Y-80309219D01*
X155466392Y-80214314D01*
X155466390Y-80214311D01*
X155466390Y-80214309D01*
X155400503Y-80100190D01*
X155400499Y-80100185D01*
X155307314Y-80006999D01*
X155307314Y-80007000D01*
X154307314Y-79007000D01*
X154307311Y-79006998D01*
X154291269Y-78997736D01*
X154250329Y-78952266D01*
X154243934Y-78891416D01*
X154274527Y-78838428D01*
X154330423Y-78813542D01*
X154340770Y-78813000D01*
X155156678Y-78813000D01*
X155214869Y-78831907D01*
X155226682Y-78841996D01*
X160470504Y-84085818D01*
X160498281Y-84140335D01*
X160499500Y-84155822D01*
X160499500Y-95713554D01*
X160480593Y-95771745D01*
X160431093Y-95807709D01*
X160369907Y-95807709D01*
X160345500Y-95795871D01*
X160331814Y-95786726D01*
X160331806Y-95786722D01*
X160204328Y-95733920D01*
X160068995Y-95707000D01*
X160068993Y-95707000D01*
X159931007Y-95707000D01*
X159931004Y-95707000D01*
X159795672Y-95733920D01*
X159795670Y-95733920D01*
X159668193Y-95786722D01*
X159668182Y-95786728D01*
X159553458Y-95863385D01*
X159455885Y-95960958D01*
X159379228Y-96075682D01*
X159379222Y-96075693D01*
X159326420Y-96203170D01*
X159326420Y-96203172D01*
X159299500Y-96338504D01*
X159299500Y-96476495D01*
X159326420Y-96611827D01*
X159326420Y-96611829D01*
X159379222Y-96739306D01*
X159379228Y-96739317D01*
X159455885Y-96854041D01*
X159553458Y-96951614D01*
X159668182Y-97028271D01*
X159668193Y-97028277D01*
X159715283Y-97047782D01*
X159795672Y-97081080D01*
X159931007Y-97108000D01*
X159931008Y-97108000D01*
X160068992Y-97108000D01*
X160068993Y-97108000D01*
X160204328Y-97081080D01*
X160331811Y-97028275D01*
X160331816Y-97028271D01*
X160331819Y-97028270D01*
X160345497Y-97019131D01*
X160404385Y-97002521D01*
X160461789Y-97023697D01*
X160495783Y-97074570D01*
X160499500Y-97101445D01*
X160499500Y-113876336D01*
X160480593Y-113934527D01*
X160470504Y-113946340D01*
X160455889Y-113960954D01*
X160455885Y-113960958D01*
X160379228Y-114075682D01*
X160379222Y-114075693D01*
X160326420Y-114203170D01*
X160326420Y-114203172D01*
X160299500Y-114338504D01*
X160299500Y-114476495D01*
X160326420Y-114611827D01*
X160326420Y-114611829D01*
X160379222Y-114739306D01*
X160379228Y-114739317D01*
X160455885Y-114854041D01*
X160553458Y-114951614D01*
X160668182Y-115028271D01*
X160668193Y-115028277D01*
X160715283Y-115047782D01*
X160795672Y-115081080D01*
X160931007Y-115108000D01*
X160931008Y-115108000D01*
X161068992Y-115108000D01*
X161068993Y-115108000D01*
X161204328Y-115081080D01*
X161331811Y-115028275D01*
X161446542Y-114951614D01*
X161544114Y-114854042D01*
X161620775Y-114739311D01*
X161673580Y-114611828D01*
X161700500Y-114476493D01*
X161700500Y-114338507D01*
X161673580Y-114203172D01*
X161620775Y-114075689D01*
X161620774Y-114075687D01*
X161620771Y-114075682D01*
X161544114Y-113960958D01*
X161529496Y-113946340D01*
X161501719Y-113891823D01*
X161500500Y-113876336D01*
X161500500Y-83841609D01*
X161499668Y-83838504D01*
X161466392Y-83714314D01*
X161466390Y-83714311D01*
X161466390Y-83714309D01*
X161400503Y-83600190D01*
X161400499Y-83600185D01*
X161307314Y-83506999D01*
X161307314Y-83507000D01*
X157807314Y-80007000D01*
X156761272Y-78960958D01*
X155712314Y-77912000D01*
X155712311Y-77911998D01*
X155712310Y-77911997D01*
X155712309Y-77911996D01*
X155598189Y-77846109D01*
X155598191Y-77846109D01*
X155548799Y-77832875D01*
X155470892Y-77812000D01*
X155470890Y-77812000D01*
X153031164Y-77812000D01*
X152972973Y-77793093D01*
X152961160Y-77783004D01*
X152946541Y-77768385D01*
X152831817Y-77691728D01*
X152831806Y-77691722D01*
X152704328Y-77638920D01*
X152568995Y-77612000D01*
X152568993Y-77612000D01*
X152431007Y-77612000D01*
X152431004Y-77612000D01*
X152295672Y-77638920D01*
X152295670Y-77638920D01*
X152168193Y-77691722D01*
X152168182Y-77691728D01*
X152053458Y-77768385D01*
X151955885Y-77865958D01*
X151879228Y-77980682D01*
X151879222Y-77980693D01*
X151826420Y-78108170D01*
X151826420Y-78108172D01*
X151799500Y-78243504D01*
X151799500Y-78381495D01*
X151826420Y-78516827D01*
X151826420Y-78516829D01*
X151879222Y-78644306D01*
X151879228Y-78644317D01*
X151951848Y-78752998D01*
X151968457Y-78811886D01*
X151947280Y-78869290D01*
X151896407Y-78903283D01*
X151869533Y-78907000D01*
X149531164Y-78907000D01*
X149472973Y-78888093D01*
X149461160Y-78878004D01*
X149446541Y-78863385D01*
X149331817Y-78786728D01*
X149331806Y-78786722D01*
X149204328Y-78733920D01*
X149068995Y-78707000D01*
X149068993Y-78707000D01*
X148931007Y-78707000D01*
X148931004Y-78707000D01*
X148795672Y-78733920D01*
X148795670Y-78733920D01*
X148668193Y-78786722D01*
X148668182Y-78786728D01*
X148553458Y-78863385D01*
X148553454Y-78863389D01*
X148538840Y-78878004D01*
X148484323Y-78905781D01*
X148468836Y-78907000D01*
X148248322Y-78907000D01*
X148190131Y-78888093D01*
X148178318Y-78878004D01*
X145149496Y-75849182D01*
X145121719Y-75794665D01*
X145120500Y-75779178D01*
X145120500Y-75046360D01*
X145139407Y-74988169D01*
X145174555Y-74958150D01*
X145242595Y-74923483D01*
X145393865Y-74813579D01*
X145526079Y-74681365D01*
X145635983Y-74530095D01*
X145720870Y-74363495D01*
X145778650Y-74185667D01*
X145778651Y-74185662D01*
X145792219Y-74099998D01*
X145819996Y-74045482D01*
X145874513Y-74017704D01*
X145934945Y-74027275D01*
X145978210Y-74070540D01*
X145987781Y-74099998D01*
X146001348Y-74185662D01*
X146059130Y-74363495D01*
X146100031Y-74443769D01*
X146144017Y-74530095D01*
X146253921Y-74681365D01*
X146386135Y-74813579D01*
X146537405Y-74923483D01*
X146704005Y-75008370D01*
X146881833Y-75066150D01*
X146881834Y-75066150D01*
X146881837Y-75066151D01*
X147066507Y-75095400D01*
X147066510Y-75095400D01*
X147253493Y-75095400D01*
X147438162Y-75066151D01*
X147438163Y-75066150D01*
X147438167Y-75066150D01*
X147615995Y-75008370D01*
X147782595Y-74923483D01*
X147933865Y-74813579D01*
X148066079Y-74681365D01*
X148175983Y-74530095D01*
X148260870Y-74363495D01*
X148318650Y-74185667D01*
X148318651Y-74185662D01*
X148332219Y-74099998D01*
X148359996Y-74045482D01*
X148414513Y-74017704D01*
X148474945Y-74027275D01*
X148518210Y-74070540D01*
X148527781Y-74099998D01*
X148541348Y-74185662D01*
X148599130Y-74363495D01*
X148640031Y-74443769D01*
X148684017Y-74530095D01*
X148793921Y-74681365D01*
X148926135Y-74813579D01*
X149077405Y-74923483D01*
X149244005Y-75008370D01*
X149421833Y-75066150D01*
X149421834Y-75066150D01*
X149421837Y-75066151D01*
X149606507Y-75095400D01*
X149606510Y-75095400D01*
X149793493Y-75095400D01*
X149978162Y-75066151D01*
X149978163Y-75066150D01*
X149978167Y-75066150D01*
X150155995Y-75008370D01*
X150322595Y-74923483D01*
X150473865Y-74813579D01*
X150606079Y-74681365D01*
X150715983Y-74530095D01*
X150800870Y-74363495D01*
X150858650Y-74185667D01*
X150858651Y-74185662D01*
X150887900Y-74000993D01*
X150887900Y-73814006D01*
X150858651Y-73629337D01*
X150858650Y-73629333D01*
X150800870Y-73451505D01*
X150715983Y-73284905D01*
X150606079Y-73133635D01*
X150473865Y-73001421D01*
X150473861Y-73001418D01*
X150473860Y-73001417D01*
X150454144Y-72987093D01*
X150418180Y-72937593D01*
X150418179Y-72876408D01*
X150454143Y-72826908D01*
X150512333Y-72808000D01*
X155585992Y-72808000D01*
X155644183Y-72826907D01*
X155655996Y-72836996D01*
X162368628Y-79549628D01*
X162396405Y-79604145D01*
X162386834Y-79664577D01*
X162368628Y-79689636D01*
X161852698Y-80205565D01*
X161802014Y-80232658D01*
X161795672Y-80233919D01*
X161795669Y-80233920D01*
X161668193Y-80286722D01*
X161668182Y-80286728D01*
X161553458Y-80363385D01*
X161455885Y-80460958D01*
X161379228Y-80575682D01*
X161379222Y-80575693D01*
X161326420Y-80703170D01*
X161326420Y-80703172D01*
X161299500Y-80838504D01*
X161299500Y-80976495D01*
X161326420Y-81111827D01*
X161326420Y-81111829D01*
X161379222Y-81239306D01*
X161379228Y-81239317D01*
X161455885Y-81354041D01*
X161553458Y-81451614D01*
X161668182Y-81528271D01*
X161668193Y-81528277D01*
X161715283Y-81547782D01*
X161795672Y-81581080D01*
X161931007Y-81608000D01*
X161931008Y-81608000D01*
X162068992Y-81608000D01*
X162068993Y-81608000D01*
X162204328Y-81581080D01*
X162331811Y-81528275D01*
X162446542Y-81451614D01*
X162544114Y-81354042D01*
X162620775Y-81239311D01*
X162673580Y-81111828D01*
X162674840Y-81105490D01*
X162701935Y-81054799D01*
X163419740Y-80336996D01*
X163474256Y-80309219D01*
X163489743Y-80308000D01*
X163588692Y-80308000D01*
X168500500Y-80308000D01*
X168558691Y-80326907D01*
X168594655Y-80376407D01*
X168599500Y-80407000D01*
X168599500Y-97208000D01*
X168580593Y-97266191D01*
X168531093Y-97302155D01*
X168500500Y-97307000D01*
X164085137Y-97307000D01*
X164085121Y-97306999D01*
X164079058Y-97306999D01*
X163920943Y-97306999D01*
X163920940Y-97306999D01*
X163768219Y-97347921D01*
X163768218Y-97347921D01*
X163710853Y-97381041D01*
X163631411Y-97426907D01*
X163631281Y-97426982D01*
X162852697Y-98205565D01*
X162802014Y-98232658D01*
X162795672Y-98233919D01*
X162795669Y-98233920D01*
X162668193Y-98286722D01*
X162668182Y-98286728D01*
X162553458Y-98363385D01*
X162455885Y-98460958D01*
X162379228Y-98575682D01*
X162379222Y-98575693D01*
X162326420Y-98703170D01*
X162326420Y-98703172D01*
X162299500Y-98838504D01*
X162299500Y-98838507D01*
X162299500Y-98976493D01*
X162326419Y-99111825D01*
X162326420Y-99111827D01*
X162326420Y-99111829D01*
X162379222Y-99239306D01*
X162379228Y-99239317D01*
X162455885Y-99354041D01*
X162553458Y-99451614D01*
X162668182Y-99528271D01*
X162668193Y-99528277D01*
X162693560Y-99538784D01*
X162795672Y-99581080D01*
X162931007Y-99608000D01*
X162931008Y-99608000D01*
X163068992Y-99608000D01*
X163068993Y-99608000D01*
X163204328Y-99581080D01*
X163331811Y-99528275D01*
X163446542Y-99451614D01*
X163544114Y-99354042D01*
X163620775Y-99239311D01*
X163673580Y-99111828D01*
X163674840Y-99105491D01*
X163701933Y-99054800D01*
X164219740Y-98536996D01*
X164274256Y-98509219D01*
X164289743Y-98508000D01*
X168500500Y-98508000D01*
X168558691Y-98526907D01*
X168594655Y-98576407D01*
X168599500Y-98607000D01*
X168599500Y-116579792D01*
X168634106Y-116753764D01*
X168634106Y-116753766D01*
X168701985Y-116917643D01*
X168701985Y-116917644D01*
X168800535Y-117065133D01*
X168870504Y-117135102D01*
X168898281Y-117189619D01*
X168899500Y-117205106D01*
X168899500Y-117617757D01*
X168880593Y-117675948D01*
X168870504Y-117687761D01*
X167280261Y-119278004D01*
X167225744Y-119305781D01*
X167210257Y-119307000D01*
X162892186Y-119307000D01*
X162837184Y-119290315D01*
X162831815Y-119286728D01*
X162831811Y-119286725D01*
X162735908Y-119247001D01*
X162704328Y-119233920D01*
X162568995Y-119207000D01*
X162568993Y-119207000D01*
X162431007Y-119207000D01*
X162431004Y-119207000D01*
X162295672Y-119233920D01*
X162295670Y-119233920D01*
X162168193Y-119286722D01*
X162168182Y-119286728D01*
X162053458Y-119363385D01*
X161955885Y-119460958D01*
X161879228Y-119575682D01*
X161879222Y-119575693D01*
X161826420Y-119703170D01*
X161826420Y-119703172D01*
X161799500Y-119838504D01*
X161799500Y-119976495D01*
X161826420Y-120111827D01*
X161826420Y-120111829D01*
X161879222Y-120239306D01*
X161879228Y-120239317D01*
X161955885Y-120354041D01*
X162053458Y-120451614D01*
X162168182Y-120528271D01*
X162168193Y-120528277D01*
X162183903Y-120534784D01*
X162295672Y-120581080D01*
X162431007Y-120608000D01*
X162431008Y-120608000D01*
X162568992Y-120608000D01*
X162568993Y-120608000D01*
X162704328Y-120581080D01*
X162831811Y-120528275D01*
X162837184Y-120524685D01*
X162892186Y-120508000D01*
X167414864Y-120508000D01*
X167414880Y-120508001D01*
X167420943Y-120508001D01*
X167579055Y-120508001D01*
X167579057Y-120508001D01*
X167731785Y-120467077D01*
X167813229Y-120420055D01*
X167868716Y-120388020D01*
X167980520Y-120276216D01*
X167980521Y-120276213D01*
X168325730Y-119931004D01*
X187299500Y-119931004D01*
X187299500Y-120068995D01*
X187309079Y-120117149D01*
X187321825Y-120181230D01*
X187326420Y-120204327D01*
X187326420Y-120204329D01*
X187379222Y-120331806D01*
X187379228Y-120331817D01*
X187455885Y-120446541D01*
X187553458Y-120544114D01*
X187668182Y-120620771D01*
X187668193Y-120620777D01*
X187715283Y-120640282D01*
X187795672Y-120673580D01*
X187931007Y-120700500D01*
X187931008Y-120700500D01*
X188068992Y-120700500D01*
X188068993Y-120700500D01*
X188204328Y-120673580D01*
X188331811Y-120620775D01*
X188446542Y-120544114D01*
X188461160Y-120529496D01*
X188515677Y-120501719D01*
X188531164Y-120500500D01*
X192950985Y-120500500D01*
X192967546Y-120503775D01*
X193016667Y-120500500D01*
X193065892Y-120500500D01*
X193082198Y-120496130D01*
X193099039Y-120495008D01*
X193145634Y-120479133D01*
X193193186Y-120466392D01*
X193207802Y-120457953D01*
X193223782Y-120452509D01*
X193264682Y-120425113D01*
X193307314Y-120400500D01*
X193319251Y-120388562D01*
X193333274Y-120379170D01*
X193365684Y-120342129D01*
X193400500Y-120307314D01*
X193404095Y-120301085D01*
X193415324Y-120285396D01*
X195010788Y-118462010D01*
X202072800Y-118462010D01*
X202072800Y-118666987D01*
X202104863Y-118869433D01*
X202104864Y-118869437D01*
X202168200Y-119064363D01*
X202168202Y-119064366D01*
X202168203Y-119064369D01*
X202168204Y-119064370D01*
X202261258Y-119247001D01*
X202381737Y-119412826D01*
X202526673Y-119557762D01*
X202692498Y-119678241D01*
X202875129Y-119771295D01*
X202875131Y-119771295D01*
X202875132Y-119771296D01*
X202875135Y-119771298D01*
X203070061Y-119834634D01*
X203070065Y-119834635D01*
X203272512Y-119866699D01*
X203272515Y-119866699D01*
X203477488Y-119866699D01*
X203679934Y-119834635D01*
X203679938Y-119834634D01*
X203874864Y-119771298D01*
X203874866Y-119771296D01*
X203874871Y-119771295D01*
X204057502Y-119678241D01*
X204223327Y-119557762D01*
X204368263Y-119412826D01*
X204488742Y-119247001D01*
X204581796Y-119064370D01*
X204581797Y-119064365D01*
X204581799Y-119064363D01*
X204645135Y-118869437D01*
X204645136Y-118869433D01*
X204677200Y-118666987D01*
X204677200Y-118462010D01*
X204645136Y-118259564D01*
X204645135Y-118259560D01*
X204581799Y-118064634D01*
X204581797Y-118064631D01*
X204581796Y-118064630D01*
X204581796Y-118064628D01*
X204488742Y-117881997D01*
X204368263Y-117716172D01*
X204223327Y-117571236D01*
X204057502Y-117450757D01*
X203874871Y-117357703D01*
X203874870Y-117357702D01*
X203874867Y-117357701D01*
X203874864Y-117357699D01*
X203679938Y-117294363D01*
X203679934Y-117294362D01*
X203477488Y-117262299D01*
X203477485Y-117262299D01*
X203272515Y-117262299D01*
X203272512Y-117262299D01*
X203070065Y-117294362D01*
X203070061Y-117294363D01*
X202875135Y-117357699D01*
X202875132Y-117357701D01*
X202692499Y-117450756D01*
X202526674Y-117571235D01*
X202381736Y-117716173D01*
X202261257Y-117881998D01*
X202168202Y-118064631D01*
X202168200Y-118064634D01*
X202104864Y-118259560D01*
X202104863Y-118259564D01*
X202072800Y-118462010D01*
X195010788Y-118462010D01*
X196865692Y-116342121D01*
X196900500Y-116307314D01*
X196908939Y-116292696D01*
X196920055Y-116279993D01*
X196940327Y-116238769D01*
X196940328Y-116238768D01*
X196941783Y-116235808D01*
X196966392Y-116193186D01*
X196970759Y-116176885D01*
X196975039Y-116168182D01*
X196975039Y-116168181D01*
X196978210Y-116161734D01*
X196987126Y-116116641D01*
X196988612Y-116110258D01*
X197000499Y-116065894D01*
X197000500Y-116065892D01*
X197000500Y-116058708D01*
X197002019Y-116041433D01*
X197002188Y-116040477D01*
X197003775Y-116032454D01*
X197003729Y-116031778D01*
X197004829Y-116025576D01*
X197016749Y-116003202D01*
X197026116Y-115979641D01*
X197032301Y-115972853D01*
X197044114Y-115961041D01*
X197103815Y-115871692D01*
X197120771Y-115846317D01*
X197120777Y-115846305D01*
X197130765Y-115822192D01*
X197173580Y-115718827D01*
X197200500Y-115583492D01*
X197200500Y-115445506D01*
X197173580Y-115310171D01*
X197120775Y-115182688D01*
X197120774Y-115182686D01*
X197120771Y-115182681D01*
X197044114Y-115067957D01*
X196946541Y-114970384D01*
X196831817Y-114893727D01*
X196831806Y-114893721D01*
X196704328Y-114840919D01*
X196568995Y-114813999D01*
X196568993Y-114813999D01*
X196431007Y-114813999D01*
X196431004Y-114813999D01*
X196295672Y-114840919D01*
X196295670Y-114840919D01*
X196168193Y-114893721D01*
X196168182Y-114893727D01*
X196053458Y-114970384D01*
X195955885Y-115067957D01*
X195879228Y-115182681D01*
X195879222Y-115182692D01*
X195826420Y-115310169D01*
X195826420Y-115310171D01*
X195799500Y-115445503D01*
X195799500Y-115583494D01*
X195826420Y-115718826D01*
X195826420Y-115718828D01*
X195879221Y-115846303D01*
X195881170Y-115849948D01*
X195891928Y-115910180D01*
X195868366Y-115961811D01*
X192802471Y-119465692D01*
X192749923Y-119497034D01*
X192727966Y-119499500D01*
X188531164Y-119499500D01*
X188472973Y-119480593D01*
X188461160Y-119470504D01*
X188446541Y-119455885D01*
X188331817Y-119379228D01*
X188331806Y-119379222D01*
X188204328Y-119326420D01*
X188068995Y-119299500D01*
X188068993Y-119299500D01*
X187931007Y-119299500D01*
X187931004Y-119299500D01*
X187795672Y-119326420D01*
X187795670Y-119326420D01*
X187668193Y-119379222D01*
X187668182Y-119379228D01*
X187553458Y-119455885D01*
X187455885Y-119553458D01*
X187379228Y-119668182D01*
X187379222Y-119668193D01*
X187326420Y-119795670D01*
X187326420Y-119795672D01*
X187299500Y-119931004D01*
X168325730Y-119931004D01*
X169868713Y-118388021D01*
X169868716Y-118388020D01*
X169980520Y-118276216D01*
X170038550Y-118175704D01*
X170059577Y-118139285D01*
X170100500Y-117986557D01*
X170100500Y-117828443D01*
X170100500Y-117205106D01*
X170102968Y-117197508D01*
X170101719Y-117189619D01*
X170112243Y-117168963D01*
X170119407Y-117146915D01*
X170129496Y-117135102D01*
X170144003Y-117120595D01*
X170198520Y-117092818D01*
X170214007Y-117091599D01*
X176007813Y-117091599D01*
X176062815Y-117108284D01*
X176068188Y-117111874D01*
X176195671Y-117164679D01*
X176331006Y-117191599D01*
X176331007Y-117191599D01*
X176468991Y-117191599D01*
X176468992Y-117191599D01*
X176604327Y-117164679D01*
X176731810Y-117111874D01*
X176846541Y-117035213D01*
X176944113Y-116937641D01*
X177020774Y-116822910D01*
X177073579Y-116695427D01*
X177100499Y-116560092D01*
X177100499Y-116422106D01*
X177073579Y-116286771D01*
X177020774Y-116159288D01*
X177020773Y-116159286D01*
X177020770Y-116159281D01*
X176944113Y-116044557D01*
X176846540Y-115946984D01*
X176731816Y-115870327D01*
X176731805Y-115870321D01*
X176604327Y-115817519D01*
X176468994Y-115790599D01*
X176468992Y-115790599D01*
X176331006Y-115790599D01*
X176331003Y-115790599D01*
X176195671Y-115817519D01*
X176195669Y-115817519D01*
X176068189Y-115870323D01*
X176062815Y-115873914D01*
X176007813Y-115890599D01*
X170499500Y-115890599D01*
X170441309Y-115871692D01*
X170405345Y-115822192D01*
X170400500Y-115791599D01*
X170400500Y-113382010D01*
X202072800Y-113382010D01*
X202072800Y-113586987D01*
X202104863Y-113789433D01*
X202104864Y-113789437D01*
X202168200Y-113984363D01*
X202168202Y-113984366D01*
X202168203Y-113984369D01*
X202168204Y-113984370D01*
X202261258Y-114167001D01*
X202381737Y-114332826D01*
X202526673Y-114477762D01*
X202692498Y-114598241D01*
X202875129Y-114691295D01*
X202875131Y-114691295D01*
X202875132Y-114691296D01*
X202875135Y-114691298D01*
X203070061Y-114754634D01*
X203070065Y-114754635D01*
X203272512Y-114786699D01*
X203272515Y-114786699D01*
X203477488Y-114786699D01*
X203679934Y-114754635D01*
X203679938Y-114754634D01*
X203874864Y-114691298D01*
X203874866Y-114691296D01*
X203874871Y-114691295D01*
X204057502Y-114598241D01*
X204223327Y-114477762D01*
X204368263Y-114332826D01*
X204488742Y-114167001D01*
X204581796Y-113984370D01*
X204581797Y-113984365D01*
X204581799Y-113984363D01*
X204645135Y-113789437D01*
X204645136Y-113789433D01*
X204677200Y-113586987D01*
X204677200Y-113382010D01*
X204645136Y-113179564D01*
X204645135Y-113179560D01*
X204581799Y-112984634D01*
X204581797Y-112984631D01*
X204581796Y-112984630D01*
X204581796Y-112984628D01*
X204488742Y-112801997D01*
X204368263Y-112636172D01*
X204223327Y-112491236D01*
X204057502Y-112370757D01*
X203874871Y-112277703D01*
X203874870Y-112277702D01*
X203874867Y-112277701D01*
X203874864Y-112277699D01*
X203679938Y-112214363D01*
X203679934Y-112214362D01*
X203477488Y-112182299D01*
X203477485Y-112182299D01*
X203272515Y-112182299D01*
X203272512Y-112182299D01*
X203070065Y-112214362D01*
X203070061Y-112214363D01*
X202875135Y-112277699D01*
X202875132Y-112277701D01*
X202692499Y-112370756D01*
X202526674Y-112491235D01*
X202381736Y-112636173D01*
X202261257Y-112801998D01*
X202168202Y-112984631D01*
X202168200Y-112984634D01*
X202104864Y-113179560D01*
X202104863Y-113179564D01*
X202072800Y-113382010D01*
X170400500Y-113382010D01*
X170400500Y-103968003D01*
X190151700Y-103968003D01*
X190151700Y-104142996D01*
X190179071Y-104315819D01*
X190179073Y-104315824D01*
X190233147Y-104482245D01*
X190275053Y-104564491D01*
X190312588Y-104638157D01*
X190312590Y-104638161D01*
X190415437Y-104779718D01*
X190415439Y-104779720D01*
X190415442Y-104779724D01*
X190539176Y-104903458D01*
X190539179Y-104903460D01*
X190539181Y-104903462D01*
X190680738Y-105006309D01*
X190680742Y-105006311D01*
X190836655Y-105085753D01*
X191003076Y-105139827D01*
X191003077Y-105139827D01*
X191003080Y-105139828D01*
X191175904Y-105167200D01*
X191175907Y-105167200D01*
X191350896Y-105167200D01*
X191523719Y-105139828D01*
X191523720Y-105139827D01*
X191523724Y-105139827D01*
X191690145Y-105085753D01*
X191846058Y-105006311D01*
X191888216Y-104975682D01*
X191987618Y-104903462D01*
X191987624Y-104903458D01*
X192111358Y-104779724D01*
X192214211Y-104638158D01*
X192293653Y-104482245D01*
X192347727Y-104315824D01*
X192347728Y-104315819D01*
X192375100Y-104142996D01*
X192375100Y-103968003D01*
X192691700Y-103968003D01*
X192691700Y-104142996D01*
X192719071Y-104315819D01*
X192719073Y-104315824D01*
X192773147Y-104482245D01*
X192815053Y-104564491D01*
X192852588Y-104638157D01*
X192852590Y-104638161D01*
X192955437Y-104779718D01*
X192955439Y-104779720D01*
X192955442Y-104779724D01*
X193079176Y-104903458D01*
X193079179Y-104903460D01*
X193079181Y-104903462D01*
X193220738Y-105006309D01*
X193220742Y-105006311D01*
X193376655Y-105085753D01*
X193543076Y-105139827D01*
X193543077Y-105139827D01*
X193543080Y-105139828D01*
X193715904Y-105167200D01*
X193715907Y-105167200D01*
X193890896Y-105167200D01*
X194063719Y-105139828D01*
X194063720Y-105139827D01*
X194063724Y-105139827D01*
X194230145Y-105085753D01*
X194386058Y-105006311D01*
X194428216Y-104975682D01*
X194527618Y-104903462D01*
X194527624Y-104903458D01*
X194651358Y-104779724D01*
X194754211Y-104638158D01*
X194833653Y-104482245D01*
X194887727Y-104315824D01*
X194887728Y-104315819D01*
X194915100Y-104142996D01*
X194915100Y-103968003D01*
X194887728Y-103795180D01*
X194833654Y-103628759D01*
X194833653Y-103628755D01*
X194754211Y-103472842D01*
X194754209Y-103472838D01*
X194651362Y-103331281D01*
X194651360Y-103331279D01*
X194651358Y-103331276D01*
X194527624Y-103207542D01*
X194527620Y-103207539D01*
X194527618Y-103207537D01*
X194386061Y-103104690D01*
X194386057Y-103104688D01*
X194312391Y-103067153D01*
X194230145Y-103025247D01*
X194230142Y-103025246D01*
X194230140Y-103025245D01*
X194063719Y-102971171D01*
X193890896Y-102943800D01*
X193890893Y-102943800D01*
X193715907Y-102943800D01*
X193715904Y-102943800D01*
X193543080Y-102971171D01*
X193376659Y-103025245D01*
X193220742Y-103104688D01*
X193220738Y-103104690D01*
X193079181Y-103207537D01*
X192955437Y-103331281D01*
X192852590Y-103472838D01*
X192852588Y-103472842D01*
X192773145Y-103628759D01*
X192719071Y-103795180D01*
X192691700Y-103968003D01*
X192375100Y-103968003D01*
X192347728Y-103795180D01*
X192293654Y-103628759D01*
X192293653Y-103628755D01*
X192214211Y-103472842D01*
X192214209Y-103472838D01*
X192111362Y-103331281D01*
X192111360Y-103331279D01*
X192111358Y-103331276D01*
X191987624Y-103207542D01*
X191987620Y-103207539D01*
X191987618Y-103207537D01*
X191846061Y-103104690D01*
X191846057Y-103104688D01*
X191772391Y-103067153D01*
X191690145Y-103025247D01*
X191690142Y-103025246D01*
X191690140Y-103025245D01*
X191523719Y-102971171D01*
X191350896Y-102943800D01*
X191350893Y-102943800D01*
X191175907Y-102943800D01*
X191175904Y-102943800D01*
X191003080Y-102971171D01*
X190836659Y-103025245D01*
X190680742Y-103104688D01*
X190680738Y-103104690D01*
X190539181Y-103207537D01*
X190415437Y-103331281D01*
X190312590Y-103472838D01*
X190312588Y-103472842D01*
X190233145Y-103628759D01*
X190179071Y-103795180D01*
X190151700Y-103968003D01*
X170400500Y-103968003D01*
X170400500Y-100931004D01*
X187799500Y-100931004D01*
X187799500Y-101068995D01*
X187826420Y-101204327D01*
X187826420Y-101204329D01*
X187879222Y-101331806D01*
X187879228Y-101331817D01*
X187955885Y-101446541D01*
X188053458Y-101544114D01*
X188168182Y-101620771D01*
X188168193Y-101620777D01*
X188215283Y-101640282D01*
X188295672Y-101673580D01*
X188431007Y-101700500D01*
X188431008Y-101700500D01*
X188568992Y-101700500D01*
X188568993Y-101700500D01*
X188704328Y-101673580D01*
X188831811Y-101620775D01*
X188946542Y-101544114D01*
X188961160Y-101529496D01*
X189015677Y-101501719D01*
X189031164Y-101500500D01*
X193065890Y-101500500D01*
X193065892Y-101500500D01*
X193193186Y-101466392D01*
X193193188Y-101466390D01*
X193193190Y-101466390D01*
X193307309Y-101400503D01*
X193307309Y-101400502D01*
X193307314Y-101400500D01*
X194745804Y-99962010D01*
X202072800Y-99962010D01*
X202072800Y-100166987D01*
X202104863Y-100369433D01*
X202104864Y-100369437D01*
X202168200Y-100564363D01*
X202168202Y-100564366D01*
X202168203Y-100564369D01*
X202168204Y-100564370D01*
X202261258Y-100747001D01*
X202381737Y-100912826D01*
X202526673Y-101057762D01*
X202692498Y-101178241D01*
X202875129Y-101271295D01*
X202875131Y-101271295D01*
X202875132Y-101271296D01*
X202875135Y-101271298D01*
X203070061Y-101334634D01*
X203070065Y-101334635D01*
X203272512Y-101366699D01*
X203272515Y-101366699D01*
X203477488Y-101366699D01*
X203679934Y-101334635D01*
X203679938Y-101334634D01*
X203874864Y-101271298D01*
X203874866Y-101271296D01*
X203874871Y-101271295D01*
X204057502Y-101178241D01*
X204223327Y-101057762D01*
X204368263Y-100912826D01*
X204488742Y-100747001D01*
X204581796Y-100564370D01*
X204581797Y-100564365D01*
X204581799Y-100564363D01*
X204645135Y-100369437D01*
X204645136Y-100369433D01*
X204677200Y-100166987D01*
X204677200Y-99962010D01*
X204645136Y-99759564D01*
X204645135Y-99759560D01*
X204581799Y-99564634D01*
X204581797Y-99564631D01*
X204581796Y-99564630D01*
X204581796Y-99564628D01*
X204488742Y-99381997D01*
X204368263Y-99216172D01*
X204223327Y-99071236D01*
X204057502Y-98950757D01*
X203874871Y-98857703D01*
X203874870Y-98857702D01*
X203874867Y-98857701D01*
X203874864Y-98857699D01*
X203679938Y-98794363D01*
X203679934Y-98794362D01*
X203477488Y-98762299D01*
X203477485Y-98762299D01*
X203272515Y-98762299D01*
X203272512Y-98762299D01*
X203070065Y-98794362D01*
X203070061Y-98794363D01*
X202875135Y-98857699D01*
X202875132Y-98857701D01*
X202692499Y-98950756D01*
X202526674Y-99071235D01*
X202381736Y-99216173D01*
X202261257Y-99381998D01*
X202168202Y-99564631D01*
X202168200Y-99564634D01*
X202104864Y-99759560D01*
X202104863Y-99759564D01*
X202072800Y-99962010D01*
X194745804Y-99962010D01*
X196900499Y-97807315D01*
X196939762Y-97739311D01*
X196966392Y-97693186D01*
X196997875Y-97575689D01*
X197000500Y-97565893D01*
X197000500Y-97463482D01*
X197000597Y-97461289D01*
X197010595Y-97434590D01*
X197019407Y-97407472D01*
X197021802Y-97404667D01*
X197022056Y-97403990D01*
X197022802Y-97403496D01*
X197029496Y-97395659D01*
X197033332Y-97391823D01*
X197044114Y-97381041D01*
X197120775Y-97266310D01*
X197173580Y-97138827D01*
X197200500Y-97003492D01*
X197200500Y-96865506D01*
X197173580Y-96730171D01*
X197125798Y-96614814D01*
X197120777Y-96602692D01*
X197120771Y-96602681D01*
X197044114Y-96487957D01*
X196946541Y-96390384D01*
X196831817Y-96313727D01*
X196831806Y-96313721D01*
X196704328Y-96260919D01*
X196568995Y-96233999D01*
X196568993Y-96233999D01*
X196431007Y-96233999D01*
X196431004Y-96233999D01*
X196295672Y-96260919D01*
X196295670Y-96260919D01*
X196168193Y-96313721D01*
X196168182Y-96313727D01*
X196053458Y-96390384D01*
X195955885Y-96487957D01*
X195879228Y-96602681D01*
X195879222Y-96602692D01*
X195826420Y-96730169D01*
X195826420Y-96730171D01*
X195799500Y-96865503D01*
X195799500Y-97003494D01*
X195804430Y-97028277D01*
X195821643Y-97114814D01*
X195826420Y-97138826D01*
X195826420Y-97138828D01*
X195879223Y-97266305D01*
X195879225Y-97266310D01*
X195892826Y-97286665D01*
X195909434Y-97345553D01*
X195888256Y-97402957D01*
X195880514Y-97411670D01*
X192821682Y-100470504D01*
X192767165Y-100498281D01*
X192751678Y-100499500D01*
X189031164Y-100499500D01*
X188972973Y-100480593D01*
X188961160Y-100470504D01*
X188946541Y-100455885D01*
X188831817Y-100379228D01*
X188831806Y-100379222D01*
X188704328Y-100326420D01*
X188568995Y-100299500D01*
X188568993Y-100299500D01*
X188431007Y-100299500D01*
X188431004Y-100299500D01*
X188295672Y-100326420D01*
X188295670Y-100326420D01*
X188168193Y-100379222D01*
X188168182Y-100379228D01*
X188053458Y-100455885D01*
X187955885Y-100553458D01*
X187879228Y-100668182D01*
X187879222Y-100668193D01*
X187826420Y-100795670D01*
X187826420Y-100795672D01*
X187799500Y-100931004D01*
X170400500Y-100931004D01*
X170400500Y-98607000D01*
X170419407Y-98548809D01*
X170468907Y-98512845D01*
X170499500Y-98508000D01*
X176107814Y-98508000D01*
X176162816Y-98524685D01*
X176168189Y-98528275D01*
X176295672Y-98581080D01*
X176431007Y-98608000D01*
X176431008Y-98608000D01*
X176568992Y-98608000D01*
X176568993Y-98608000D01*
X176704328Y-98581080D01*
X176831811Y-98528275D01*
X176946542Y-98451614D01*
X177044114Y-98354042D01*
X177120775Y-98239311D01*
X177173580Y-98111828D01*
X177200500Y-97976493D01*
X177200500Y-97838507D01*
X177173580Y-97703172D01*
X177120775Y-97575689D01*
X177120770Y-97575680D01*
X177044114Y-97460958D01*
X176946541Y-97363385D01*
X176831817Y-97286728D01*
X176831806Y-97286722D01*
X176704328Y-97233920D01*
X176568995Y-97207000D01*
X176568993Y-97207000D01*
X176431007Y-97207000D01*
X176431004Y-97207000D01*
X176295672Y-97233920D01*
X176295670Y-97233920D01*
X176168190Y-97286724D01*
X176162816Y-97290315D01*
X176107814Y-97307000D01*
X170499500Y-97307000D01*
X170441309Y-97288093D01*
X170405345Y-97238593D01*
X170400500Y-97208000D01*
X170400500Y-94882010D01*
X202072800Y-94882010D01*
X202072800Y-95086987D01*
X202104863Y-95289433D01*
X202104864Y-95289437D01*
X202168200Y-95484363D01*
X202168202Y-95484366D01*
X202168203Y-95484369D01*
X202168204Y-95484370D01*
X202261258Y-95667001D01*
X202381737Y-95832826D01*
X202526673Y-95977762D01*
X202692498Y-96098241D01*
X202875129Y-96191295D01*
X202875131Y-96191295D01*
X202875132Y-96191296D01*
X202875135Y-96191298D01*
X203070061Y-96254634D01*
X203070065Y-96254635D01*
X203272512Y-96286699D01*
X203272515Y-96286699D01*
X203477488Y-96286699D01*
X203679934Y-96254635D01*
X203679938Y-96254634D01*
X203874864Y-96191298D01*
X203874866Y-96191296D01*
X203874871Y-96191295D01*
X204057502Y-96098241D01*
X204223327Y-95977762D01*
X204368263Y-95832826D01*
X204488742Y-95667001D01*
X204581796Y-95484370D01*
X204581797Y-95484365D01*
X204581799Y-95484363D01*
X204645135Y-95289437D01*
X204645136Y-95289433D01*
X204677200Y-95086987D01*
X204677200Y-94882010D01*
X204645136Y-94679564D01*
X204645135Y-94679560D01*
X204581799Y-94484634D01*
X204581797Y-94484631D01*
X204581796Y-94484630D01*
X204581796Y-94484628D01*
X204488742Y-94301997D01*
X204368263Y-94136172D01*
X204223327Y-93991236D01*
X204057502Y-93870757D01*
X203874871Y-93777703D01*
X203874870Y-93777702D01*
X203874867Y-93777701D01*
X203874864Y-93777699D01*
X203679938Y-93714363D01*
X203679934Y-93714362D01*
X203477488Y-93682299D01*
X203477485Y-93682299D01*
X203272515Y-93682299D01*
X203272512Y-93682299D01*
X203070065Y-93714362D01*
X203070061Y-93714363D01*
X202875135Y-93777699D01*
X202875132Y-93777701D01*
X202692499Y-93870756D01*
X202526674Y-93991235D01*
X202381736Y-94136173D01*
X202261257Y-94301998D01*
X202168202Y-94484631D01*
X202168200Y-94484634D01*
X202104864Y-94679560D01*
X202104863Y-94679564D01*
X202072800Y-94882010D01*
X170400500Y-94882010D01*
X170400500Y-85642994D01*
X190151699Y-85642994D01*
X190179071Y-85815819D01*
X190231279Y-85976495D01*
X190233147Y-85982245D01*
X190255904Y-86026907D01*
X190312588Y-86138157D01*
X190312590Y-86138161D01*
X190415437Y-86279718D01*
X190415439Y-86279720D01*
X190415442Y-86279724D01*
X190539176Y-86403458D01*
X190539179Y-86403460D01*
X190539181Y-86403462D01*
X190680738Y-86506309D01*
X190680742Y-86506311D01*
X190836655Y-86585753D01*
X191003076Y-86639827D01*
X191003077Y-86639827D01*
X191003080Y-86639828D01*
X191175904Y-86667200D01*
X191175907Y-86667200D01*
X191350896Y-86667200D01*
X191523719Y-86639828D01*
X191523720Y-86639827D01*
X191523724Y-86639827D01*
X191690145Y-86585753D01*
X191846058Y-86506311D01*
X191887097Y-86476495D01*
X191987618Y-86403462D01*
X191987624Y-86403458D01*
X192111358Y-86279724D01*
X192214211Y-86138158D01*
X192293653Y-85982245D01*
X192347727Y-85815824D01*
X192348967Y-85807999D01*
X192375100Y-85642994D01*
X192691699Y-85642994D01*
X192719071Y-85815819D01*
X192771279Y-85976495D01*
X192773147Y-85982245D01*
X192795904Y-86026907D01*
X192852588Y-86138157D01*
X192852590Y-86138161D01*
X192955437Y-86279718D01*
X192955439Y-86279720D01*
X192955442Y-86279724D01*
X193079176Y-86403458D01*
X193079179Y-86403460D01*
X193079181Y-86403462D01*
X193220738Y-86506309D01*
X193220742Y-86506311D01*
X193376655Y-86585753D01*
X193543076Y-86639827D01*
X193543077Y-86639827D01*
X193543080Y-86639828D01*
X193715904Y-86667200D01*
X193715907Y-86667200D01*
X193890896Y-86667200D01*
X194063719Y-86639828D01*
X194063720Y-86639827D01*
X194063724Y-86639827D01*
X194230145Y-86585753D01*
X194386058Y-86506311D01*
X194427097Y-86476495D01*
X194527618Y-86403462D01*
X194527624Y-86403458D01*
X194651358Y-86279724D01*
X194754211Y-86138158D01*
X194833653Y-85982245D01*
X194887727Y-85815824D01*
X194888967Y-85807999D01*
X194915100Y-85642994D01*
X194915100Y-85468003D01*
X194887728Y-85295180D01*
X194867824Y-85233920D01*
X194833653Y-85128755D01*
X194754211Y-84972842D01*
X194754209Y-84972838D01*
X194651362Y-84831281D01*
X194651360Y-84831279D01*
X194651358Y-84831276D01*
X194527624Y-84707542D01*
X194527620Y-84707539D01*
X194527618Y-84707537D01*
X194386061Y-84604690D01*
X194386057Y-84604688D01*
X194312391Y-84567153D01*
X194230145Y-84525247D01*
X194230142Y-84525246D01*
X194230140Y-84525245D01*
X194063719Y-84471171D01*
X193890896Y-84443800D01*
X193890893Y-84443800D01*
X193715907Y-84443800D01*
X193715904Y-84443800D01*
X193543080Y-84471171D01*
X193376659Y-84525245D01*
X193220742Y-84604688D01*
X193220738Y-84604690D01*
X193079181Y-84707537D01*
X192955437Y-84831281D01*
X192852590Y-84972838D01*
X192852588Y-84972842D01*
X192773145Y-85128759D01*
X192719071Y-85295180D01*
X192691700Y-85468003D01*
X192691700Y-85642993D01*
X192691699Y-85642994D01*
X192375100Y-85642994D01*
X192375100Y-85468003D01*
X192347728Y-85295180D01*
X192327824Y-85233920D01*
X192293653Y-85128755D01*
X192214211Y-84972842D01*
X192214209Y-84972838D01*
X192111362Y-84831281D01*
X192111360Y-84831279D01*
X192111358Y-84831276D01*
X191987624Y-84707542D01*
X191987620Y-84707539D01*
X191987618Y-84707537D01*
X191846061Y-84604690D01*
X191846057Y-84604688D01*
X191772391Y-84567153D01*
X191690145Y-84525247D01*
X191690142Y-84525246D01*
X191690140Y-84525245D01*
X191523719Y-84471171D01*
X191350896Y-84443800D01*
X191350893Y-84443800D01*
X191175907Y-84443800D01*
X191175904Y-84443800D01*
X191003080Y-84471171D01*
X190836659Y-84525245D01*
X190680742Y-84604688D01*
X190680738Y-84604690D01*
X190539181Y-84707537D01*
X190415437Y-84831281D01*
X190312590Y-84972838D01*
X190312588Y-84972842D01*
X190233145Y-85128759D01*
X190179071Y-85295180D01*
X190151700Y-85468003D01*
X190151700Y-85642993D01*
X190151699Y-85642994D01*
X170400500Y-85642994D01*
X170400500Y-82431004D01*
X187799500Y-82431004D01*
X187799500Y-82568995D01*
X187826420Y-82704327D01*
X187826420Y-82704329D01*
X187879222Y-82831806D01*
X187879228Y-82831817D01*
X187955885Y-82946541D01*
X188053458Y-83044114D01*
X188168182Y-83120771D01*
X188168193Y-83120777D01*
X188215283Y-83140282D01*
X188295672Y-83173580D01*
X188431007Y-83200500D01*
X188431008Y-83200500D01*
X188568992Y-83200500D01*
X188568993Y-83200500D01*
X188704328Y-83173580D01*
X188831811Y-83120775D01*
X188946542Y-83044114D01*
X188961160Y-83029496D01*
X189015677Y-83001719D01*
X189031164Y-83000500D01*
X193565890Y-83000500D01*
X193565892Y-83000500D01*
X193693186Y-82966392D01*
X193693188Y-82966390D01*
X193693190Y-82966390D01*
X193807309Y-82900503D01*
X193807309Y-82900502D01*
X193807314Y-82900500D01*
X194819204Y-81888610D01*
X202097799Y-81888610D01*
X202097799Y-82093587D01*
X202129862Y-82296033D01*
X202129863Y-82296037D01*
X202193199Y-82490963D01*
X202193201Y-82490966D01*
X202193202Y-82490969D01*
X202193203Y-82490970D01*
X202286257Y-82673601D01*
X202406736Y-82839426D01*
X202551672Y-82984362D01*
X202717497Y-83104841D01*
X202900128Y-83197895D01*
X202900130Y-83197895D01*
X202900131Y-83197896D01*
X202900134Y-83197898D01*
X203095060Y-83261234D01*
X203095064Y-83261235D01*
X203297511Y-83293299D01*
X203297514Y-83293299D01*
X203502487Y-83293299D01*
X203704933Y-83261235D01*
X203704937Y-83261234D01*
X203899863Y-83197898D01*
X203899865Y-83197896D01*
X203899870Y-83197895D01*
X204082501Y-83104841D01*
X204248326Y-82984362D01*
X204393262Y-82839426D01*
X204513741Y-82673601D01*
X204606795Y-82490970D01*
X204606796Y-82490965D01*
X204606798Y-82490963D01*
X204670134Y-82296037D01*
X204670135Y-82296033D01*
X204702199Y-82093587D01*
X204702199Y-81888610D01*
X204670135Y-81686164D01*
X204670134Y-81686160D01*
X204606798Y-81491234D01*
X204606796Y-81491231D01*
X204606795Y-81491230D01*
X204606795Y-81491228D01*
X204513741Y-81308597D01*
X204393262Y-81142772D01*
X204248326Y-80997836D01*
X204082501Y-80877357D01*
X203899870Y-80784303D01*
X203899869Y-80784302D01*
X203899866Y-80784301D01*
X203899863Y-80784299D01*
X203704937Y-80720963D01*
X203704933Y-80720962D01*
X203502487Y-80688899D01*
X203502484Y-80688899D01*
X203297514Y-80688899D01*
X203297511Y-80688899D01*
X203095064Y-80720962D01*
X203095060Y-80720963D01*
X202900134Y-80784299D01*
X202900131Y-80784301D01*
X202717498Y-80877356D01*
X202551673Y-80997835D01*
X202406735Y-81142773D01*
X202286256Y-81308598D01*
X202193201Y-81491231D01*
X202193199Y-81491234D01*
X202129863Y-81686160D01*
X202129862Y-81686164D01*
X202097799Y-81888610D01*
X194819204Y-81888610D01*
X196900500Y-79807314D01*
X196900503Y-79807309D01*
X196966390Y-79693190D01*
X196966390Y-79693188D01*
X196966392Y-79693186D01*
X197000500Y-79565892D01*
X197000500Y-79465663D01*
X197019407Y-79407472D01*
X197029496Y-79395659D01*
X197044114Y-79381041D01*
X197120775Y-79266310D01*
X197173580Y-79138827D01*
X197200500Y-79003492D01*
X197200500Y-78865506D01*
X197173580Y-78730171D01*
X197138014Y-78644306D01*
X197120777Y-78602692D01*
X197120771Y-78602681D01*
X197044114Y-78487957D01*
X196946541Y-78390384D01*
X196831817Y-78313727D01*
X196831806Y-78313721D01*
X196704328Y-78260919D01*
X196568995Y-78233999D01*
X196568993Y-78233999D01*
X196431007Y-78233999D01*
X196431004Y-78233999D01*
X196295672Y-78260919D01*
X196295670Y-78260919D01*
X196168193Y-78313721D01*
X196168182Y-78313727D01*
X196053458Y-78390384D01*
X195955885Y-78487957D01*
X195879228Y-78602681D01*
X195879222Y-78602692D01*
X195826420Y-78730169D01*
X195826420Y-78730171D01*
X195799500Y-78865503D01*
X195799500Y-79003494D01*
X195826420Y-79138826D01*
X195826420Y-79138828D01*
X195853072Y-79203172D01*
X195879225Y-79266310D01*
X195892826Y-79286665D01*
X195909434Y-79345553D01*
X195888256Y-79402957D01*
X195880514Y-79411670D01*
X193321682Y-81970504D01*
X193267165Y-81998281D01*
X193251678Y-81999500D01*
X189031164Y-81999500D01*
X188972973Y-81980593D01*
X188961160Y-81970504D01*
X188946541Y-81955885D01*
X188831817Y-81879228D01*
X188831806Y-81879222D01*
X188704328Y-81826420D01*
X188568995Y-81799500D01*
X188568993Y-81799500D01*
X188431007Y-81799500D01*
X188431004Y-81799500D01*
X188295672Y-81826420D01*
X188295670Y-81826420D01*
X188168193Y-81879222D01*
X188168182Y-81879228D01*
X188053458Y-81955885D01*
X187955885Y-82053458D01*
X187879228Y-82168182D01*
X187879222Y-82168193D01*
X187826420Y-82295670D01*
X187826420Y-82295672D01*
X187799500Y-82431004D01*
X170400500Y-82431004D01*
X170400500Y-80107000D01*
X170419407Y-80048809D01*
X170468907Y-80012845D01*
X170499500Y-80008000D01*
X176607814Y-80008000D01*
X176662816Y-80024685D01*
X176668189Y-80028275D01*
X176795672Y-80081080D01*
X176931007Y-80108000D01*
X176931008Y-80108000D01*
X177068992Y-80108000D01*
X177068993Y-80108000D01*
X177204328Y-80081080D01*
X177331811Y-80028275D01*
X177446542Y-79951614D01*
X177544114Y-79854042D01*
X177620775Y-79739311D01*
X177673580Y-79611828D01*
X177700500Y-79476493D01*
X177700500Y-79338507D01*
X177673580Y-79203172D01*
X177620775Y-79075689D01*
X177620774Y-79075687D01*
X177620771Y-79075682D01*
X177544114Y-78960958D01*
X177446541Y-78863385D01*
X177331817Y-78786728D01*
X177331806Y-78786722D01*
X177204328Y-78733920D01*
X177068995Y-78707000D01*
X177068993Y-78707000D01*
X176931007Y-78707000D01*
X176931004Y-78707000D01*
X176795672Y-78733920D01*
X176795670Y-78733920D01*
X176668190Y-78786724D01*
X176662816Y-78790315D01*
X176607814Y-78807000D01*
X170214007Y-78807000D01*
X170155816Y-78788093D01*
X170144003Y-78778004D01*
X170074034Y-78708035D01*
X169926544Y-78609485D01*
X169762666Y-78541606D01*
X169588693Y-78507000D01*
X169588691Y-78507000D01*
X163914007Y-78507000D01*
X163855816Y-78488093D01*
X163844003Y-78478004D01*
X162174609Y-76808610D01*
X202097799Y-76808610D01*
X202097799Y-77013587D01*
X202129862Y-77216033D01*
X202129863Y-77216037D01*
X202193199Y-77410963D01*
X202193201Y-77410966D01*
X202193202Y-77410969D01*
X202193203Y-77410970D01*
X202286257Y-77593601D01*
X202406736Y-77759426D01*
X202551672Y-77904362D01*
X202717497Y-78024841D01*
X202900128Y-78117895D01*
X202900130Y-78117895D01*
X202900131Y-78117896D01*
X202900134Y-78117898D01*
X203095060Y-78181234D01*
X203095064Y-78181235D01*
X203297511Y-78213299D01*
X203297514Y-78213299D01*
X203502487Y-78213299D01*
X203704933Y-78181235D01*
X203704937Y-78181234D01*
X203899863Y-78117898D01*
X203899865Y-78117896D01*
X203899870Y-78117895D01*
X204082501Y-78024841D01*
X204248326Y-77904362D01*
X204393262Y-77759426D01*
X204513741Y-77593601D01*
X204606795Y-77410970D01*
X204606796Y-77410965D01*
X204606798Y-77410963D01*
X204670134Y-77216037D01*
X204670135Y-77216033D01*
X204702199Y-77013587D01*
X204702199Y-76808610D01*
X204670135Y-76606164D01*
X204670134Y-76606160D01*
X204606798Y-76411234D01*
X204606796Y-76411231D01*
X204606795Y-76411230D01*
X204606795Y-76411228D01*
X204513741Y-76228597D01*
X204393262Y-76062772D01*
X204248326Y-75917836D01*
X204082501Y-75797357D01*
X203899870Y-75704303D01*
X203899869Y-75704302D01*
X203899866Y-75704301D01*
X203899863Y-75704299D01*
X203704937Y-75640963D01*
X203704933Y-75640962D01*
X203502487Y-75608899D01*
X203502484Y-75608899D01*
X203297514Y-75608899D01*
X203297511Y-75608899D01*
X203095064Y-75640962D01*
X203095060Y-75640963D01*
X202900134Y-75704299D01*
X202900131Y-75704301D01*
X202717498Y-75797356D01*
X202686076Y-75820186D01*
X202551672Y-75917836D01*
X202406736Y-76062772D01*
X202339114Y-76155846D01*
X202286256Y-76228598D01*
X202193201Y-76411231D01*
X202193199Y-76411234D01*
X202129863Y-76606160D01*
X202129862Y-76606164D01*
X202097799Y-76808610D01*
X162174609Y-76808610D01*
X160261275Y-74895276D01*
X156574036Y-71208036D01*
X156514959Y-71168563D01*
X156426547Y-71109487D01*
X156426548Y-71109487D01*
X156426546Y-71109486D01*
X156262664Y-71041604D01*
X156088694Y-71007000D01*
X156088692Y-71007000D01*
X156088691Y-71007000D01*
X134488690Y-71007000D01*
X133572289Y-71007000D01*
X133394906Y-71007000D01*
X133394903Y-71007000D01*
X133220933Y-71041605D01*
X133220932Y-71041605D01*
X133057053Y-71109485D01*
X133057052Y-71109485D01*
X132909563Y-71208035D01*
X131938735Y-72178863D01*
X131925879Y-72198105D01*
X131925878Y-72198106D01*
X131840191Y-72326343D01*
X131840187Y-72326349D01*
X131810837Y-72397209D01*
X131772306Y-72490228D01*
X131772304Y-72490234D01*
X131737700Y-72664203D01*
X131737700Y-75315292D01*
X131718793Y-75373483D01*
X131708704Y-75385296D01*
X123115996Y-83978004D01*
X123061479Y-84005781D01*
X123045992Y-84007000D01*
X110894904Y-84007000D01*
X110720932Y-84041606D01*
X110720930Y-84041606D01*
X110557053Y-84109485D01*
X110557052Y-84109485D01*
X110409563Y-84208035D01*
X110284133Y-84333465D01*
X110185583Y-84480954D01*
X110185583Y-84480955D01*
X110117704Y-84644832D01*
X110117704Y-84644834D01*
X110083098Y-84818806D01*
X106800500Y-84818806D01*
X106800500Y-74280086D01*
X106819407Y-74221895D01*
X106829496Y-74210082D01*
X107127075Y-73912503D01*
X123118300Y-73912503D01*
X123118300Y-74087496D01*
X123145671Y-74260319D01*
X123179196Y-74363495D01*
X123199747Y-74426745D01*
X123238071Y-74501960D01*
X123279188Y-74582657D01*
X123279190Y-74582661D01*
X123382037Y-74724218D01*
X123382039Y-74724220D01*
X123382042Y-74724224D01*
X123505776Y-74847958D01*
X123505779Y-74847960D01*
X123505781Y-74847962D01*
X123647338Y-74950809D01*
X123647342Y-74950811D01*
X123803255Y-75030253D01*
X123969676Y-75084327D01*
X123969677Y-75084327D01*
X123969680Y-75084328D01*
X124142504Y-75111700D01*
X124142507Y-75111700D01*
X124317496Y-75111700D01*
X124490319Y-75084328D01*
X124490320Y-75084327D01*
X124490324Y-75084327D01*
X124656745Y-75030253D01*
X124812658Y-74950811D01*
X124954224Y-74847958D01*
X125077958Y-74724224D01*
X125180811Y-74582658D01*
X125260253Y-74426745D01*
X125314327Y-74260324D01*
X125314328Y-74260319D01*
X125341700Y-74087496D01*
X125341700Y-73912503D01*
X125658300Y-73912503D01*
X125658300Y-74087496D01*
X125685671Y-74260319D01*
X125719196Y-74363495D01*
X125739747Y-74426745D01*
X125778071Y-74501960D01*
X125819188Y-74582657D01*
X125819190Y-74582661D01*
X125922037Y-74724218D01*
X125922039Y-74724220D01*
X125922042Y-74724224D01*
X126045776Y-74847958D01*
X126045779Y-74847960D01*
X126045781Y-74847962D01*
X126187338Y-74950809D01*
X126187342Y-74950811D01*
X126343255Y-75030253D01*
X126509676Y-75084327D01*
X126509677Y-75084327D01*
X126509680Y-75084328D01*
X126682504Y-75111700D01*
X126682507Y-75111700D01*
X126857496Y-75111700D01*
X127030319Y-75084328D01*
X127030320Y-75084327D01*
X127030324Y-75084327D01*
X127196745Y-75030253D01*
X127352658Y-74950811D01*
X127494224Y-74847958D01*
X127617958Y-74724224D01*
X127720811Y-74582658D01*
X127800253Y-74426745D01*
X127854327Y-74260324D01*
X127854328Y-74260319D01*
X127881700Y-74087496D01*
X127881700Y-73912503D01*
X127854328Y-73739680D01*
X127846310Y-73715001D01*
X127800253Y-73573255D01*
X127720811Y-73417342D01*
X127720809Y-73417338D01*
X127617962Y-73275781D01*
X127617960Y-73275779D01*
X127617958Y-73275776D01*
X127494224Y-73152042D01*
X127494220Y-73152039D01*
X127494218Y-73152037D01*
X127352661Y-73049190D01*
X127352657Y-73049188D01*
X127258908Y-73001421D01*
X127196745Y-72969747D01*
X127196742Y-72969746D01*
X127196740Y-72969745D01*
X127030319Y-72915671D01*
X126857496Y-72888300D01*
X126857493Y-72888300D01*
X126682507Y-72888300D01*
X126682504Y-72888300D01*
X126509680Y-72915671D01*
X126343259Y-72969745D01*
X126187342Y-73049188D01*
X126187338Y-73049190D01*
X126045781Y-73152037D01*
X125922037Y-73275781D01*
X125819190Y-73417338D01*
X125819188Y-73417342D01*
X125739745Y-73573259D01*
X125685671Y-73739680D01*
X125658300Y-73912503D01*
X125341700Y-73912503D01*
X125314328Y-73739680D01*
X125306310Y-73715001D01*
X125260253Y-73573255D01*
X125180811Y-73417342D01*
X125180809Y-73417338D01*
X125077962Y-73275781D01*
X125077960Y-73275779D01*
X125077958Y-73275776D01*
X124954224Y-73152042D01*
X124954220Y-73152039D01*
X124954218Y-73152037D01*
X124812661Y-73049190D01*
X124812657Y-73049188D01*
X124718908Y-73001421D01*
X124656745Y-72969747D01*
X124656742Y-72969746D01*
X124656740Y-72969745D01*
X124490319Y-72915671D01*
X124317496Y-72888300D01*
X124317493Y-72888300D01*
X124142507Y-72888300D01*
X124142504Y-72888300D01*
X123969680Y-72915671D01*
X123803259Y-72969745D01*
X123647342Y-73049188D01*
X123647338Y-73049190D01*
X123505781Y-73152037D01*
X123382037Y-73275781D01*
X123279190Y-73417338D01*
X123279188Y-73417342D01*
X123199745Y-73573259D01*
X123145671Y-73739680D01*
X123118300Y-73912503D01*
X107127075Y-73912503D01*
X107302582Y-73736996D01*
X107357099Y-73709219D01*
X107372586Y-73708000D01*
X108421158Y-73708000D01*
X109321157Y-73708000D01*
X110321157Y-73708000D01*
X111019252Y-73708000D01*
X111057137Y-73715536D01*
X111089742Y-73729041D01*
X111166502Y-73760836D01*
X111321157Y-73791599D01*
X111321158Y-73791599D01*
X111478841Y-73791599D01*
X111478842Y-73791599D01*
X111633496Y-73760836D01*
X111779178Y-73700493D01*
X111910288Y-73612888D01*
X112021788Y-73501388D01*
X112109393Y-73370278D01*
X112169736Y-73224596D01*
X112200499Y-73069942D01*
X112200499Y-72912257D01*
X112169736Y-72757602D01*
X112131051Y-72664207D01*
X112109395Y-72611924D01*
X112109389Y-72611913D01*
X112074016Y-72558975D01*
X112021788Y-72480810D01*
X111826689Y-72285711D01*
X111774459Y-72250812D01*
X111695585Y-72198109D01*
X111695574Y-72198103D01*
X111549897Y-72137763D01*
X111395244Y-72107000D01*
X111395242Y-72107000D01*
X110478841Y-72107000D01*
X109478841Y-72107000D01*
X108578842Y-72107000D01*
X107078843Y-72107000D01*
X106921158Y-72107000D01*
X106921155Y-72107000D01*
X106766504Y-72137761D01*
X106620821Y-72198105D01*
X106489711Y-72285711D01*
X106489707Y-72285714D01*
X105378214Y-73397207D01*
X105378211Y-73397211D01*
X105290609Y-73528314D01*
X105290603Y-73528325D01*
X105230263Y-73674001D01*
X105230263Y-73674003D01*
X105199500Y-73828655D01*
X88400499Y-73828655D01*
X88400499Y-70090599D01*
X88419406Y-70032408D01*
X88468906Y-69996444D01*
X88499499Y-69991599D01*
X207300499Y-69991599D01*
X207358690Y-70010506D01*
G37*
%TD.AperFunction*%
%TD*%
M02*
